<svg xmlns="http://www.w3.org/2000/svg" version="1.1" xmlns:xlink="http://www.w3.org/1999/xlink" xmlns:svgjs="http://svgjs.dev/svgjs" width="1500" height="1500" viewBox="0 0 1500 1500"><rect width="1500" height="1500" fill="#000000"></rect><g transform="matrix(0.6666666666666666,0,0,0.6666666666666666,250,250)"><svg viewBox="0 0 280 280" data-background-color="#ffffff" preserveAspectRatio="xMidYMid meet" height="1500" width="1500" xmlns="http://www.w3.org/2000/svg" xmlns:xlink="http://www.w3.org/1999/xlink"><g id="tight-bounds" transform="matrix(1,0,0,1,0,0)"><svg viewBox="0 0 280 280" height="280" width="280"><g><svg viewBox="0 0 280 280" height="280" width="280"><g><svg viewBox="0 0 280 280" height="280" width="280"><g id="textblocktransform"><svg viewBox="0 0 280 280" height="280" width="280" id="textblock"><g><svg viewBox="0 0 280 280" height="280" width="280"><g transform="matrix(1,0,0,1,62.783939494429006,62.78410876250484)"><svg viewBox="0 0 154.432121011142 154.4317824749903" height="154.4317824749903" width="154.432121011142"><g id="icon-0"><svg xmlns="http://www.w3.org/2000/svg" xmlns:xlink="http://www.w3.org/1999/xlink" version="1.1" x="0" y="0" viewBox="2 2 60.00013152842488 60" style="enable-background:new 0 0 64 64;" xml:space="preserve" height="154.4317824749903" width="154.432121011142" class="icon-xg-0" data-fill-palette-color="accent" id="xg-0"><path d="M25 43h14c0.553 0 1-0.448 1-1v-3c0-3.14-1.823-5.856-4.463-7.165C37.027 30.743 38 28.985 38 27c0-3.309-2.691-6-6-6s-6 2.691-6 6c0 1.985 0.973 3.743 2.463 4.835C25.823 33.144 24 35.86 24 39v3C24 42.552 24.447 43 25 43zM32 33c0.335 0 0.662 0.034 0.982 0.088C32.936 33.596 32.521 34 32 34s-0.936-0.404-0.982-0.912C31.338 33.034 31.665 33 32 33zM32 23c1.291 0 2.429 0.625 3.161 1.577C34.16 24.2 33.097 24 32 24s-2.16 0.2-3.161 0.577C29.571 23.625 30.709 23 32 23zM28.027 27.268C29.205 26.451 30.563 26 32 26s2.795 0.451 3.973 1.268C35.832 29.347 34.114 31 32 31S28.168 29.347 28.027 27.268zM26 39c0-2.259 1.256-4.229 3.106-5.253C29.44 35.039 30.605 36 32 36s2.56-0.961 2.894-2.253C36.744 34.771 38 36.741 38 39v2H26V39z" fill="#ffffff" data-fill-palette-color="accent"></path><path d="M10 17c1.627 0 3.061-0.793 3.974-2H15c0.811 0 1.565-0.317 2.107-0.874C17.684 13.566 18 12.811 18 12c0-1.654-1.346-3-3-3h-1-1H6c-0.553 0-1 0.448-1 1v2C5 14.757 7.243 17 10 17zM16 12c0 0.267-0.103 0.513-0.306 0.712C15.513 12.898 15.267 13 15 13h-0.101C14.965 12.677 15 12.342 15 12v-1C15.552 11 16 11.449 16 12zM7 11h6v1c0 1.654-1.346 3-3 3s-3-1.346-3-3V11z" fill="#ffffff" data-fill-palette-color="accent"></path><rect x="5" y="18" width="10" height="2" fill="#ffffff" data-fill-palette-color="accent"></rect><path d="M11.5 8h2c0-0.076 0-0.086 0.207-0.293C14.004 7.41 14.5 6.914 14.5 5.999s-0.496-1.411-0.793-1.708C13.5 4.084 13.5 4.074 13.5 3.998c0-0.075 0-0.085 0.207-0.292C14.004 3.41 14.5 2.914 14.5 2h-2c0 0.075 0 0.085-0.207 0.292C11.996 2.588 11.5 3.084 11.5 3.998c0 0.915 0.496 1.411 0.793 1.708C12.5 5.913 12.5 5.923 12.5 5.999s0 0.086-0.207 0.293C11.996 6.589 11.5 7.085 11.5 8z" fill="#ffffff" data-fill-palette-color="accent"></path><path d="M7.5 8h2c0-0.076 0-0.086 0.207-0.293C10.004 7.41 10.5 6.914 10.5 5.999s-0.496-1.411-0.793-1.708C9.5 4.084 9.5 4.074 9.5 3.998c0-0.075 0-0.085 0.207-0.292C10.004 3.41 10.5 2.914 10.5 2h-2c0 0.075 0 0.085-0.207 0.292C7.996 2.588 7.5 3.084 7.5 3.998c0 0.915 0.496 1.411 0.793 1.708C8.5 5.913 8.5 5.923 8.5 5.999s0 0.086-0.207 0.293C7.996 6.589 7.5 7.085 7.5 8z" fill="#ffffff" data-fill-palette-color="accent"></path><path d="M40 17h14 7c0.358 0 0.688-0.191 0.867-0.502s0.177-0.692-0.003-1.002l-7-12C54.68 3.179 54.343 2.983 53.968 3c-0.367 0.012-0.698 0.224-0.862 0.552l-2.249 4.499-2.975-5.526c-0.35-0.647-1.412-0.647-1.762 0l-7 13c-0.166 0.31-0.158 0.685 0.022 0.987S39.648 17 40 17zM54.067 6.101l1.628 2.79-0.893 0.893-1.355-0.678C53.309 9.036 53.155 9 53 9h-0.382L54.067 6.101zM52.764 11l1.789 0.895c0.384 0.191 0.849 0.117 1.154-0.188l1.03-1.03L59.259 15h-4.661l-2.154-4H52.764zM47 5.109l2.299 4.269-0.983-0.328c-0.254-0.084-0.526-0.064-0.764 0.054l-1.21 0.605L45.336 8.2 47 5.109zM44.261 10.195l0.907 1.36C45.359 11.841 45.676 12 46.001 12c0.15 0 0.304-0.034 0.446-0.105l1.63-0.815 2.606 0.869L52.326 15H41.674L44.261 10.195z" fill="#ffffff" data-fill-palette-color="accent"></path><path d="M49.909 49.91c-2.608 2.608-4.03 5.98-3.901 9.251 0.062 1.553 1.279 2.77 2.832 2.832C48.977 61.998 49.113 62 49.251 62c3.14 0 6.34-1.41 8.84-3.91 2.608-2.608 4.03-5.98 3.901-9.251-0.062-1.553-1.279-2.771-2.831-2.831C55.888 45.863 52.519 47.301 49.909 49.91zM48.919 59.994c-0.5-0.02-0.893-0.413-0.913-0.913-0.019-0.48 0.02-0.967 0.085-1.456l2.281 2.281C49.884 59.972 49.397 60.012 48.919 59.994zM56.677 56.676c-1.19 1.189-2.596 2.084-4.059 2.647l-3.945-3.945c0.564-1.462 1.461-2.866 2.65-4.055 1.191-1.191 2.593-2.087 4.056-2.651l3.948 3.948C58.763 54.083 57.866 55.487 56.677 56.676zM59.994 48.919c0.019 0.48-0.02 0.967-0.085 1.456l-2.282-2.282c0.488-0.065 0.975-0.104 1.456-0.086C59.582 48.026 59.974 48.418 59.994 48.919z" fill="#ffffff" data-fill-palette-color="accent"></path><polygon points="57.414,52 56,50.586 55.354,51.233 54.707,50.586 53.293,52 53.939,52.647 52.646,53.939 52,53.293 50.586,54.707   51.232,55.353 50.586,56 52,57.414 52.646,56.767 53.293,57.414 54.707,56 54.061,55.353 55.354,54.061 56,54.707 57.414,53.293   56.768,52.647 " fill="#ffffff" data-fill-palette-color="accent"></polygon><path d="M3.256 60.908c2.336-0.619 4.809-0.331 6.965 0.812l0.312 0.165c0.043 0.022 0.088 0.035 0.133 0.05 0.028 0.01 0.054 0.024 0.082 0.031C10.831 61.988 10.915 62 11 62s0.169-0.012 0.252-0.034c0.028-0.007 0.055-0.021 0.082-0.031 0.044-0.016 0.09-0.028 0.133-0.05l0.313-0.166c2.155-1.141 4.628-1.43 6.964-0.811 0.298 0.079 0.619 0.016 0.866-0.174 0.245-0.189 0.39-0.482 0.39-0.792V49.353c0-0.454-0.306-0.851-0.744-0.967-2.768-0.733-5.692-0.407-8.256 0.903-2.564-1.311-5.489-1.636-8.256-0.903C2.306 48.502 2 48.899 2 49.353v10.588c0 0.311 0.145 0.603 0.39 0.792C2.636 60.923 2.957 60.987 3.256 60.908zM18 50.153v8.562c-2.022-0.302-4.089-0.061-6 0.701v-8.399C13.873 50.084 15.969 49.785 18 50.153zM4 50.153c2.031-0.368 4.127-0.069 6 0.864v8.399c-1.377-0.549-2.835-0.828-4.299-0.828-0.567 0-1.136 0.042-1.701 0.126V50.153z" fill="#ffffff" data-fill-palette-color="accent"></path><rect x="31" y="2" width="2" height="13" fill="#ffffff" data-fill-palette-color="accent"></rect><rect x="50" y="31" width="12" height="2" fill="#ffffff" data-fill-palette-color="accent"></rect><rect x="31" y="51" width="2" height="11" fill="#ffffff" data-fill-palette-color="accent"></rect><rect x="2" y="31" width="12" height="2" fill="#ffffff" data-fill-palette-color="accent"></rect><path d="M32 49c8.822 0 16-7.178 16-16s-7.178-16-16-16-16 7.178-16 16S23.178 49 32 49zM32 19c7.72 0 14 6.28 14 14s-6.28 14-14 14-14-6.28-14-14S24.28 19 32 19z" fill="#ffffff" data-fill-palette-color="accent"></path></svg></g></svg></g><g id="text-0"></g><g id="text-1"></g></svg></g></svg></g></svg></g></svg></g><defs></defs><mask id="5c458fea-6fc6-4885-8ad5-93f290106f76"><g id="SvgjsG1303"><svg viewBox="0 0 280 280" height="280" width="280"><g><svg viewBox="0 0 280 280" height="280" width="280"><g><svg viewBox="0 0 280 280" height="280" width="280"><g id="SvgjsG1302"><svg viewBox="0 0 280 280" height="280" width="280" id="SvgjsSvg1301"><g><svg viewBox="0 0 280 280" height="280" width="280"><g transform="matrix(1,0,0,1,62.783939494429006,62.78410876250484)"><svg viewBox="0 0 154.432121011142 154.4317824749903" height="154.4317824749903" width="154.432121011142"><g id="SvgjsG1300"><svg xmlns="http://www.w3.org/2000/svg" xmlns:xlink="http://www.w3.org/1999/xlink" version="1.1" x="0" y="0" viewBox="2 2 60.00013152842488 60" style="enable-background:new 0 0 64 64;" xml:space="preserve" height="154.4317824749903" width="154.432121011142" class="icon-xg-0" data-fill-palette-color="accent" id="SvgjsSvg1299"><path d="M25 43h14c0.553 0 1-0.448 1-1v-3c0-3.14-1.823-5.856-4.463-7.165C37.027 30.743 38 28.985 38 27c0-3.309-2.691-6-6-6s-6 2.691-6 6c0 1.985 0.973 3.743 2.463 4.835C25.823 33.144 24 35.86 24 39v3C24 42.552 24.447 43 25 43zM32 33c0.335 0 0.662 0.034 0.982 0.088C32.936 33.596 32.521 34 32 34s-0.936-0.404-0.982-0.912C31.338 33.034 31.665 33 32 33zM32 23c1.291 0 2.429 0.625 3.161 1.577C34.16 24.2 33.097 24 32 24s-2.16 0.2-3.161 0.577C29.571 23.625 30.709 23 32 23zM28.027 27.268C29.205 26.451 30.563 26 32 26s2.795 0.451 3.973 1.268C35.832 29.347 34.114 31 32 31S28.168 29.347 28.027 27.268zM26 39c0-2.259 1.256-4.229 3.106-5.253C29.44 35.039 30.605 36 32 36s2.56-0.961 2.894-2.253C36.744 34.771 38 36.741 38 39v2H26V39z" fill="black"></path><path d="M10 17c1.627 0 3.061-0.793 3.974-2H15c0.811 0 1.565-0.317 2.107-0.874C17.684 13.566 18 12.811 18 12c0-1.654-1.346-3-3-3h-1-1H6c-0.553 0-1 0.448-1 1v2C5 14.757 7.243 17 10 17zM16 12c0 0.267-0.103 0.513-0.306 0.712C15.513 12.898 15.267 13 15 13h-0.101C14.965 12.677 15 12.342 15 12v-1C15.552 11 16 11.449 16 12zM7 11h6v1c0 1.654-1.346 3-3 3s-3-1.346-3-3V11z" fill="black"></path><rect x="5" y="18" width="10" height="2" fill="black"></rect><path d="M11.5 8h2c0-0.076 0-0.086 0.207-0.293C14.004 7.41 14.5 6.914 14.5 5.999s-0.496-1.411-0.793-1.708C13.5 4.084 13.5 4.074 13.5 3.998c0-0.075 0-0.085 0.207-0.292C14.004 3.41 14.5 2.914 14.5 2h-2c0 0.075 0 0.085-0.207 0.292C11.996 2.588 11.5 3.084 11.5 3.998c0 0.915 0.496 1.411 0.793 1.708C12.5 5.913 12.5 5.923 12.5 5.999s0 0.086-0.207 0.293C11.996 6.589 11.5 7.085 11.5 8z" fill="black"></path><path d="M7.5 8h2c0-0.076 0-0.086 0.207-0.293C10.004 7.41 10.5 6.914 10.5 5.999s-0.496-1.411-0.793-1.708C9.5 4.084 9.5 4.074 9.5 3.998c0-0.075 0-0.085 0.207-0.292C10.004 3.41 10.5 2.914 10.5 2h-2c0 0.075 0 0.085-0.207 0.292C7.996 2.588 7.5 3.084 7.5 3.998c0 0.915 0.496 1.411 0.793 1.708C8.5 5.913 8.5 5.923 8.5 5.999s0 0.086-0.207 0.293C7.996 6.589 7.5 7.085 7.5 8z" fill="black"></path><path d="M40 17h14 7c0.358 0 0.688-0.191 0.867-0.502s0.177-0.692-0.003-1.002l-7-12C54.68 3.179 54.343 2.983 53.968 3c-0.367 0.012-0.698 0.224-0.862 0.552l-2.249 4.499-2.975-5.526c-0.35-0.647-1.412-0.647-1.762 0l-7 13c-0.166 0.31-0.158 0.685 0.022 0.987S39.648 17 40 17zM54.067 6.101l1.628 2.79-0.893 0.893-1.355-0.678C53.309 9.036 53.155 9 53 9h-0.382L54.067 6.101zM52.764 11l1.789 0.895c0.384 0.191 0.849 0.117 1.154-0.188l1.03-1.03L59.259 15h-4.661l-2.154-4H52.764zM47 5.109l2.299 4.269-0.983-0.328c-0.254-0.084-0.526-0.064-0.764 0.054l-1.21 0.605L45.336 8.2 47 5.109zM44.261 10.195l0.907 1.36C45.359 11.841 45.676 12 46.001 12c0.15 0 0.304-0.034 0.446-0.105l1.63-0.815 2.606 0.869L52.326 15H41.674L44.261 10.195z" fill="black"></path><path d="M49.909 49.91c-2.608 2.608-4.03 5.98-3.901 9.251 0.062 1.553 1.279 2.77 2.832 2.832C48.977 61.998 49.113 62 49.251 62c3.14 0 6.34-1.41 8.84-3.91 2.608-2.608 4.03-5.98 3.901-9.251-0.062-1.553-1.279-2.771-2.831-2.831C55.888 45.863 52.519 47.301 49.909 49.91zM48.919 59.994c-0.5-0.02-0.893-0.413-0.913-0.913-0.019-0.48 0.02-0.967 0.085-1.456l2.281 2.281C49.884 59.972 49.397 60.012 48.919 59.994zM56.677 56.676c-1.19 1.189-2.596 2.084-4.059 2.647l-3.945-3.945c0.564-1.462 1.461-2.866 2.65-4.055 1.191-1.191 2.593-2.087 4.056-2.651l3.948 3.948C58.763 54.083 57.866 55.487 56.677 56.676zM59.994 48.919c0.019 0.48-0.02 0.967-0.085 1.456l-2.282-2.282c0.488-0.065 0.975-0.104 1.456-0.086C59.582 48.026 59.974 48.418 59.994 48.919z" fill="black"></path><polygon points="57.414,52 56,50.586 55.354,51.233 54.707,50.586 53.293,52 53.939,52.647 52.646,53.939 52,53.293 50.586,54.707   51.232,55.353 50.586,56 52,57.414 52.646,56.767 53.293,57.414 54.707,56 54.061,55.353 55.354,54.061 56,54.707 57.414,53.293   56.768,52.647 " fill="black"></polygon><path d="M3.256 60.908c2.336-0.619 4.809-0.331 6.965 0.812l0.312 0.165c0.043 0.022 0.088 0.035 0.133 0.05 0.028 0.01 0.054 0.024 0.082 0.031C10.831 61.988 10.915 62 11 62s0.169-0.012 0.252-0.034c0.028-0.007 0.055-0.021 0.082-0.031 0.044-0.016 0.09-0.028 0.133-0.05l0.313-0.166c2.155-1.141 4.628-1.43 6.964-0.811 0.298 0.079 0.619 0.016 0.866-0.174 0.245-0.189 0.39-0.482 0.39-0.792V49.353c0-0.454-0.306-0.851-0.744-0.967-2.768-0.733-5.692-0.407-8.256 0.903-2.564-1.311-5.489-1.636-8.256-0.903C2.306 48.502 2 48.899 2 49.353v10.588c0 0.311 0.145 0.603 0.39 0.792C2.636 60.923 2.957 60.987 3.256 60.908zM18 50.153v8.562c-2.022-0.302-4.089-0.061-6 0.701v-8.399C13.873 50.084 15.969 49.785 18 50.153zM4 50.153c2.031-0.368 4.127-0.069 6 0.864v8.399c-1.377-0.549-2.835-0.828-4.299-0.828-0.567 0-1.136 0.042-1.701 0.126V50.153z" fill="black"></path><rect x="31" y="2" width="2" height="13" fill="black"></rect><rect x="50" y="31" width="12" height="2" fill="black"></rect><rect x="31" y="51" width="2" height="11" fill="black"></rect><rect x="2" y="31" width="12" height="2" fill="black"></rect><path d="M32 49c8.822 0 16-7.178 16-16s-7.178-16-16-16-16 7.178-16 16S23.178 49 32 49zM32 19c7.72 0 14 6.28 14 14s-6.28 14-14 14-14-6.28-14-14S24.28 19 32 19z" fill="black"></path></svg></g></svg></g><g id="SvgjsG1298"><path d="M25.414 101.902l-0.179 0.529c-0.187 0.552-0.397 0.931-0.632 1.139-0.232 0.2-0.486 0.254-0.762 0.16v0l-19.035-6.44c-0.276-0.093-0.446-0.29-0.509-0.59-0.061-0.307 0.002-0.736 0.189-1.288v0l0.3-0.886c0.106-0.315 0.22-0.566 0.341-0.754 0.121-0.188 0.269-0.352 0.446-0.493 0.174-0.134 0.407-0.241 0.698-0.321v0l14.067-3.804c0.369-0.118 0.754-0.21 1.155-0.275 0.405-0.056 0.796-0.121 1.171-0.194v0l0.01-0.125c-0.34-0.094-0.689-0.183-1.046-0.268-0.349-0.089-0.742-0.208-1.178-0.356v0l-11.198-3.788c-0.276-0.093-0.446-0.29-0.509-0.591-0.061-0.307 0.002-0.736 0.189-1.288v0l0.18-0.529c0.193-0.571 0.405-0.954 0.635-1.148 0.23-0.194 0.483-0.244 0.759-0.151v0l19.035 6.439c0.276 0.093 0.447 0.287 0.512 0.581 0.065 0.294 0.001 0.726-0.192 1.298v0l-0.3 0.886c-0.087 0.257-0.184 0.481-0.292 0.674-0.108 0.192-0.232 0.347-0.372 0.464-0.14 0.117-0.316 0.204-0.528 0.261v0l-14.534 3.915c-0.363 0.099-0.745 0.184-1.148 0.255-0.41 0.069-0.802 0.14-1.178 0.213v0l-0.01 0.125c0.347 0.074 0.696 0.164 1.047 0.269 0.349 0.111 0.738 0.239 1.168 0.384v0l11.371 3.847c0.276 0.093 0.448 0.284 0.515 0.571 0.069 0.281 0.008 0.707-0.186 1.279z" fill="white"></path><path d="M36.15 77.083v0c-1.172 2.124-2.689 3.392-4.549 3.805-1.864 0.418-3.977-0.024-6.338-1.328v0c-2.379-1.313-3.888-2.87-4.528-4.67-0.643-1.794-0.378-3.754 0.795-5.877v0c1.163-2.106 2.671-3.359 4.525-3.76 1.854-0.401 3.971 0.056 6.35 1.369v0c2.361 1.303 3.87 2.84 4.525 4.611 0.652 1.777 0.393 3.727-0.78 5.85zM33.386 75.592v0c0.563-1.02 0.595-1.974 0.094-2.862-0.503-0.897-1.517-1.766-3.042-2.608v0c-1.507-0.832-2.771-1.22-3.792-1.165-1.024 0.046-1.818 0.58-2.381 1.6v0c-0.56 1.014-0.596 1.97-0.108 2.866 0.488 0.896 1.503 1.77 3.046 2.622v0c1.507 0.832 2.776 1.219 3.806 1.161 1.025-0.061 1.817-0.599 2.377-1.614z" fill="white"></path><path d="M45 63.657v0c-0.935 1.222-1.964 1.898-3.087 2.028-1.129 0.126-2.344-0.309-3.647-1.306v0l-8.525-6.522c-0.231-0.177-0.331-0.415-0.298-0.714 0.033-0.299 0.226-0.68 0.581-1.143v0l0.395-0.517c0.366-0.479 0.69-0.773 0.97-0.883 0.284-0.115 0.542-0.084 0.773 0.093v0l8.106 6.2c0.544 0.416 1.069 0.605 1.576 0.566 0.517-0.04 1.002-0.356 1.454-0.947v0c0.239-0.312 0.42-0.677 0.543-1.095 0.119-0.412 0.168-0.844 0.147-1.295-0.026-0.446-0.131-0.872-0.315-1.278v0l-8.299-6.349c-0.231-0.177-0.331-0.415-0.298-0.715 0.033-0.299 0.226-0.68 0.58-1.143v0l0.414-0.541c0.354-0.463 0.671-0.749 0.951-0.859 0.284-0.115 0.542-0.084 0.774 0.093v0l8.154 6.238c0.71 0.543 1.293 0.959 1.746 1.247 0.463 0.286 0.838 0.505 1.124 0.655 0.287 0.16 0.503 0.296 0.649 0.407v0c0.167 0.128 0.227 0.323 0.179 0.585-0.047 0.262-0.146 0.554-0.297 0.873-0.147 0.314-0.308 0.609-0.484 0.884-0.167 0.274-0.301 0.478-0.404 0.612v0c-0.136 0.178-0.291 0.28-0.467 0.309-0.176 0.019-0.413-0.034-0.71-0.159-0.292-0.121-0.694-0.309-1.206-0.565v0c0.127 0.515 0.181 1.085 0.163 1.711-0.024 0.622-0.133 1.233-0.329 1.835-0.205 0.603-0.509 1.167-0.913 1.695z" fill="white"></path><path d="M55.482 51.306l-0.439 0.439c-0.412 0.412-0.765 0.654-1.056 0.725-0.292 0.072-0.541 0.005-0.748-0.202v0l-7.256-7.262c-0.627-0.628-1.154-1.117-1.58-1.467-0.426-0.35-0.766-0.618-1.021-0.805-0.259-0.182-0.455-0.34-0.589-0.475v0c-0.129-0.129-0.156-0.323-0.079-0.582 0.082-0.254 0.223-0.525 0.425-0.812 0.197-0.283 0.398-0.551 0.604-0.805 0.201-0.249 0.362-0.433 0.482-0.553v0c0.158-0.158 0.328-0.237 0.51-0.237 0.172 0 0.41 0.084 0.712 0.252 0.302 0.168 0.716 0.444 1.243 0.827v0c-0.22-0.546-0.333-1.085-0.338-1.617-0.009-0.537 0.072-1.04 0.245-1.509 0.182-0.469 0.441-0.872 0.777-1.208v0c0.364-0.364 0.681-0.536 0.949-0.517 0.273 0.024 0.556 0.182 0.848 0.475v0c0.134 0.134 0.302 0.321 0.503 0.561 0.196 0.244 0.378 0.508 0.546 0.791 0.172 0.288 0.297 0.551 0.373 0.791 0.081 0.244 0.057 0.431-0.072 0.56v0c-0.12 0.12-0.288 0.215-0.503 0.287-0.225 0.072-0.477 0.247-0.755 0.525v0c-0.355 0.354-0.585 0.762-0.691 1.221-0.11 0.465-0.087 0.925 0.072 1.38v0l7.385 7.392c0.206 0.206 0.273 0.455 0.201 0.748-0.072 0.292-0.321 0.652-0.748 1.077z" fill="white"></path><path d="M64.719 42.898l-0.529 0.445c-0.441 0.371-0.812 0.582-1.115 0.634-0.297 0.047-0.54-0.041-0.727-0.265v0l-9.396-11.156c-0.188-0.223-0.233-0.477-0.137-0.762 0.102-0.289 0.373-0.62 0.813-0.991v0l0.529-0.445c0.441-0.371 0.812-0.582 1.115-0.633 0.297-0.047 0.54 0.041 0.727 0.264v0l9.396 11.157c0.188 0.223 0.233 0.477 0.137 0.761-0.102 0.289-0.373 0.62-0.813 0.991zM52.773 29.251v0c-0.539 0.454-0.978 0.722-1.317 0.804-0.339 0.082-0.602 0.011-0.789-0.212v0l-1.441-1.711c-0.175-0.207-0.193-0.471-0.055-0.791 0.138-0.32 0.477-0.707 1.016-1.161v0c0.523-0.441 0.95-0.707 1.28-0.799 0.334-0.087 0.596-0.019 0.783 0.204v0l1.441 1.711c0.188 0.223 0.213 0.494 0.074 0.814-0.138 0.32-0.469 0.7-0.992 1.141z" fill="white"></path><path d="M73.686 36.695v0c-0.517 0.348-1.054 0.649-1.611 0.901-0.557 0.253-1.09 0.432-1.598 0.538-0.514 0.11-0.959 0.147-1.333 0.113-0.378-0.04-0.648-0.18-0.811-0.421v0c-0.114-0.169-0.196-0.436-0.247-0.803-0.045-0.37-0.048-0.732-0.008-1.085 0.034-0.35 0.13-0.578 0.287-0.684v0c0.101-0.068 0.322-0.111 0.662-0.127 0.34-0.017 0.743-0.08 1.209-0.189 0.456-0.111 0.934-0.335 1.434-0.672v0c0.635-0.428 1.033-0.868 1.195-1.32 0.158-0.457 0.091-0.903-0.201-1.335v0c-0.231-0.343-0.512-0.554-0.843-0.633-0.331-0.079-0.723-0.085-1.176-0.017-0.453 0.068-0.952 0.163-1.499 0.286v0c-0.454 0.102-0.938 0.191-1.45 0.267-0.516 0.07-1.039 0.071-1.568 0.002-0.534-0.065-1.051-0.256-1.55-0.573-0.496-0.311-0.965-0.796-1.408-1.454v0c-0.568-0.843-0.866-1.692-0.895-2.547-0.029-0.855 0.189-1.684 0.653-2.487 0.462-0.793 1.14-1.491 2.034-2.093v0c0.416-0.28 0.853-0.534 1.313-0.762 0.463-0.222 0.921-0.404 1.373-0.545 0.452-0.141 0.855-0.204 1.209-0.189 0.344 0.013 0.592 0.132 0.743 0.357v0c0.117 0.174 0.218 0.445 0.303 0.814 0.084 0.368 0.127 0.711 0.129 1.028 0.005 0.323-0.068 0.536-0.22 0.638v0c-0.124 0.083-0.436 0.159-0.938 0.227-0.505 0.063-1.095 0.321-1.769 0.776v0c-0.495 0.333-0.833 0.704-1.015 1.113-0.177 0.405-0.125 0.815 0.155 1.231v0c0.197 0.292 0.44 0.484 0.73 0.574 0.284 0.094 0.64 0.112 1.066 0.054 0.423-0.064 0.909-0.167 1.459-0.309v0c0.49-0.134 1.01-0.235 1.56-0.303 0.556-0.072 1.104-0.065 1.644 0.02 0.545 0.082 1.075 0.28 1.59 0.596 0.509 0.319 0.983 0.804 1.422 1.456v0c0.557 0.826 0.85 1.699 0.881 2.618 0.036 0.915-0.187 1.797-0.669 2.644-0.483 0.848-1.23 1.613-2.242 2.295z" fill="white"></path><path d="M84.07 30.339l-0.616 0.312c-0.514 0.26-0.924 0.38-1.231 0.36-0.3-0.023-0.516-0.164-0.647-0.424v0l-9.792-19.343c-0.132-0.26-0.118-0.518 0.042-0.773 0.165-0.258 0.505-0.518 1.019-0.778v0l0.562-0.285c0.532-0.269 0.951-0.394 1.258-0.374 0.3 0.023 0.516 0.164 0.647 0.424v0l3.709 7.327c0.101-0.491 0.278-0.988 0.534-1.489 0.255-0.501 0.595-0.97 1.02-1.405 0.419-0.432 0.916-0.794 1.49-1.084v0c0.943-0.477 1.816-0.711 2.62-0.7 0.809 0.008 1.538 0.262 2.186 0.762 0.645 0.494 1.226 1.252 1.743 2.274v0l4.788 9.458c0.132 0.26 0.118 0.518-0.042 0.773-0.159 0.255-0.499 0.515-1.019 0.778v0l-0.58 0.294c-0.538 0.272-0.957 0.397-1.258 0.374-0.306-0.02-0.525-0.16-0.656-0.419v0l-4.55-8.987c-0.337-0.665-0.752-1.096-1.247-1.294-0.492-0.192-1.098-0.105-1.817 0.259v0c-0.333 0.168-0.639 0.411-0.919 0.727-0.286 0.32-0.506 0.681-0.658 1.085-0.153 0.404-0.234 0.828-0.244 1.274v0l4.719 9.323c0.132 0.26 0.118 0.518-0.042 0.773-0.165 0.258-0.505 0.518-1.019 0.778z" fill="white"></path><path d="M101.03 22.813l-0.649 0.238c-0.541 0.199-0.962 0.27-1.263 0.215-0.295-0.057-0.493-0.223-0.594-0.496v0l-5.03-13.691c-0.1-0.274-0.057-0.528 0.131-0.763 0.194-0.237 0.562-0.455 1.102-0.654v0l0.649-0.239c0.541-0.199 0.962-0.27 1.264-0.215 0.295 0.057 0.493 0.223 0.594 0.497v0l5.03 13.691c0.1 0.274 0.057 0.528-0.131 0.763-0.194 0.237-0.562 0.455-1.103 0.654zM94.452 5.911v0c-0.661 0.243-1.165 0.345-1.511 0.306-0.346-0.039-0.57-0.195-0.671-0.468v0l-0.771-2.099c-0.093-0.254-0.021-0.509 0.218-0.762 0.239-0.254 0.689-0.502 1.351-0.746v0c0.642-0.236 1.134-0.341 1.476-0.314 0.344 0.032 0.566 0.185 0.667 0.458v0l0.771 2.099c0.1 0.274 0.031 0.537-0.208 0.791-0.239 0.254-0.679 0.499-1.322 0.735z" fill="white"></path><path d="M109.922 20.309l-0.672 0.161c-0.56 0.134-0.987 0.156-1.28 0.066-0.287-0.092-0.464-0.279-0.532-0.563v0l-2.388-9.984c-0.207-0.863-0.397-1.556-0.571-2.079-0.18-0.521-0.333-0.927-0.458-1.218-0.119-0.292-0.2-0.53-0.245-0.715v0c-0.043-0.178 0.037-0.357 0.238-0.537 0.202-0.174 0.461-0.33 0.776-0.468 0.322-0.14 0.634-0.263 0.936-0.37 0.308-0.109 0.542-0.182 0.7-0.22v0c0.224-0.054 0.41-0.032 0.559 0.065 0.154 0.089 0.304 0.265 0.45 0.53 0.147 0.264 0.338 0.654 0.573 1.169v0c0.247-0.484 0.562-0.957 0.946-1.418 0.389-0.469 0.843-0.874 1.361-1.214 0.519-0.333 1.092-0.575 1.718-0.724v0c1.028-0.246 1.931-0.27 2.71-0.074 0.785 0.195 1.435 0.611 1.95 1.248 0.513 0.63 0.903 1.502 1.169 2.615v0l2.467 10.311c0.068 0.283-0.005 0.531-0.22 0.742-0.214 0.211-0.605 0.385-1.171 0.521v0l-0.633 0.151c-0.587 0.14-1.023 0.165-1.31 0.073-0.293-0.09-0.474-0.277-0.542-0.56v0l-2.343-9.797c-0.173-0.725-0.478-1.241-0.914-1.547-0.434-0.3-1.043-0.357-1.827-0.169v0c-0.362 0.087-0.717 0.252-1.063 0.494-0.353 0.245-0.65 0.546-0.892 0.903-0.242 0.357-0.419 0.752-0.532 1.183v0l2.431 10.162c0.068 0.283-0.005 0.531-0.22 0.743-0.221 0.213-0.611 0.387-1.171 0.52z" fill="white"></path><path d="M131.654 23.391v0c-1.513 0.116-2.802 0.062-3.866-0.162-1.07-0.217-1.896-0.619-2.478-1.207-0.589-0.594-0.92-1.363-0.993-2.309v0c-0.043-0.561 0.033-1.083 0.227-1.567 0.187-0.483 0.476-0.927 0.866-1.331 0.384-0.403 0.854-0.742 1.411-1.015v0l0.034-0.094c-0.438-0.218-0.784-0.524-1.039-0.92-0.261-0.395-0.413-0.862-0.454-1.402v0c-0.046-0.595 0.072-1.147 0.352-1.658 0.287-0.511 0.695-0.954 1.223-1.328v0c-0.836-0.351-1.505-0.877-2.007-1.579-0.496-0.703-0.784-1.581-0.864-2.635v0c-0.092-1.196 0.106-2.21 0.592-3.042 0.487-0.826 1.206-1.472 2.156-1.939 0.956-0.467 2.053-0.749 3.289-0.844v0c0.392-0.03 0.775-0.046 1.148-0.047 0.374 0.005 0.73 0.036 1.067 0.092v0l5.22-0.4c0.311-0.024 0.535 0.068 0.673 0.274 0.139 0.214 0.225 0.547 0.26 1v0l0.036 0.466c0.065 0.845-0.139 1.285-0.612 1.321v0c-0.101 0.008-0.268 0.01-0.499 0.008-0.231-0.003-0.47-0.015-0.717-0.037-0.253-0.021-0.456-0.047-0.607-0.076v0l-0.023 0.094c0.183 0.176 0.345 0.381 0.485 0.615 0.148 0.24 0.255 0.487 0.322 0.74 0.074 0.253 0.121 0.514 0.142 0.784v0c0.089 1.162-0.101 2.145-0.57 2.949-0.469 0.804-1.161 1.438-2.076 1.902-0.909 0.464-1.982 0.743-3.219 0.838v0c-0.622 0.048-1.104 0.132-1.448 0.254-0.344 0.122-0.576 0.285-0.696 0.492-0.12 0.206-0.169 0.455-0.147 0.745v0c0.027 0.351 0.183 0.611 0.467 0.78 0.277 0.162 0.653 0.276 1.128 0.341 0.474 0.072 1.005 0.12 1.591 0.144 0.587 0.03 1.191 0.062 1.811 0.095v0c0.863 0.083 1.677 0.245 2.443 0.486 0.767 0.247 1.401 0.64 1.905 1.179 0.497 0.546 0.785 1.326 0.863 2.34v0c0.079 1.034-0.163 1.953-0.727 2.757-0.564 0.798-1.415 1.451-2.551 1.959-1.137 0.502-2.51 0.814-4.118 0.937zM131.75 20.265v0c1.243-0.095 2.153-0.328 2.73-0.699 0.577-0.364 0.843-0.836 0.799-1.417v0c-0.022-0.291-0.129-0.527-0.32-0.709-0.191-0.182-0.463-0.321-0.817-0.417-0.348-0.102-0.754-0.17-1.218-0.202-0.458-0.04-0.97-0.068-1.536-0.086-0.559-0.018-1.152-0.048-1.78-0.088v0c-0.506 0.229-0.904 0.531-1.195 0.907-0.297 0.376-0.43 0.78-0.396 1.213v0c0.028 0.372 0.178 0.683 0.448 0.934 0.271 0.251 0.675 0.424 1.213 0.519 0.537 0.095 1.228 0.11 2.072 0.045zM130.688 7.991v0c0.52-0.04 0.98-0.153 1.38-0.341 0.4-0.187 0.716-0.463 0.946-0.826 0.238-0.358 0.334-0.828 0.29-1.409v0c-0.045-0.581-0.211-1.03-0.501-1.348-0.283-0.325-0.637-0.549-1.061-0.673-0.424-0.117-0.895-0.156-1.415-0.116v0c-0.493 0.038-0.947 0.147-1.362 0.329-0.414 0.188-0.732 0.464-0.956 0.827-0.217 0.356-0.304 0.825-0.259 1.407v0c0.067 0.872 0.381 1.463 0.941 1.773 0.567 0.31 1.233 0.436 1.997 0.377z" fill="white"></path><path d="M154.218 23.779l-0.433-0.061c-0.517-0.073-0.894-0.184-1.133-0.334-0.239-0.15-0.345-0.319-0.318-0.507v0c0.009-0.06 0.021-0.127 0.038-0.2 0.023-0.065 0.075-0.167 0.156-0.307v0l3.658-6.577-0.467 2.88-3.441-17.012c-0.009-0.083-0.017-0.173-0.024-0.27-0.008-0.09-0.006-0.179 0.007-0.266v0c0.028-0.201 0.184-0.337 0.468-0.406 0.276-0.064 0.702-0.055 1.279 0.027v0l0.745 0.105c0.389 0.055 0.716 0.142 0.979 0.261 0.263 0.126 0.422 0.306 0.479 0.54v0l1.714 10.989 0.12 0.017 4.657-10.091c0.118-0.209 0.321-0.338 0.609-0.386 0.286-0.042 0.634-0.034 1.044 0.024v0l0.523 0.074c0.577 0.081 0.983 0.19 1.217 0.325 0.233 0.142 0.335 0.314 0.307 0.516v0c-0.012 0.087-0.031 0.17-0.056 0.249-0.018 0.08-0.058 0.166-0.119 0.26v0l-10.286 19.726c-0.113 0.217-0.32 0.355-0.623 0.415-0.304 0.067-0.67 0.07-1.1 0.009z" fill="white"></path><path d="M173.541 21.473v0c-2.337-0.652-3.92-1.835-4.75-3.552-0.837-1.718-0.893-3.875-0.168-6.473v0c0.73-2.617 1.897-4.445 3.501-5.481 1.598-1.039 3.566-1.232 5.903-0.581v0c2.317 0.646 3.884 1.825 4.701 3.538 0.817 1.712 0.861 3.877 0.131 6.494v0c-0.724 2.598-1.873 4.42-3.445 5.466-1.579 1.044-3.536 1.24-5.873 0.589zM174.355 18.439v0c1.123 0.313 2.058 0.124 2.807-0.568 0.757-0.696 1.369-1.883 1.837-3.561v0c0.462-1.658 0.549-2.977 0.26-3.958-0.281-0.986-0.983-1.635-2.105-1.949v0c-1.116-0.311-2.054-0.126-2.814 0.556-0.76 0.682-1.376 1.871-1.85 3.568v0c-0.462 1.658-0.547 2.982-0.252 3.971 0.296 0.983 1.002 1.63 2.117 1.941z" fill="white"></path><path d="M188.641 26.993v0c-1.404-0.629-2.298-1.475-2.683-2.538-0.382-1.07-0.238-2.353 0.431-3.849v0l4.386-9.796c0.119-0.266 0.328-0.417 0.627-0.455 0.299-0.037 0.714 0.064 1.246 0.302v0l0.594 0.266c0.55 0.246 0.911 0.493 1.082 0.741 0.178 0.25 0.207 0.508 0.088 0.774v0l-4.17 9.314c-0.28 0.625-0.342 1.179-0.188 1.664 0.158 0.494 0.577 0.893 1.256 1.198v0c0.359 0.161 0.755 0.253 1.191 0.276 0.429 0.021 0.86-0.031 1.294-0.155 0.428-0.127 0.819-0.328 1.171-0.601v0l4.27-9.536c0.119-0.266 0.328-0.417 0.627-0.455 0.299-0.037 0.714 0.064 1.246 0.302v0l0.621 0.278c0.532 0.238 0.883 0.481 1.055 0.729 0.178 0.25 0.207 0.508 0.088 0.774v0l-4.196 9.37c-0.366 0.816-0.636 1.479-0.811 1.986-0.172 0.517-0.298 0.932-0.379 1.245-0.09 0.316-0.172 0.558-0.247 0.725v0c-0.086 0.192-0.262 0.295-0.528 0.309-0.266 0.014-0.572-0.015-0.918-0.088-0.34-0.07-0.664-0.16-0.972-0.268-0.305-0.099-0.534-0.183-0.688-0.253v0c-0.204-0.091-0.34-0.219-0.408-0.383-0.059-0.167-0.061-0.41-0.008-0.727 0.05-0.312 0.141-0.746 0.272-1.304v0c-0.472 0.242-1.015 0.426-1.628 0.552-0.611 0.12-1.231 0.154-1.861 0.102-0.634-0.061-1.253-0.227-1.86-0.499z" fill="white"></path><path d="M213.581 41.894l-0.693-0.533c-0.446-0.343-0.723-0.655-0.832-0.935-0.109-0.281-0.075-0.536 0.103-0.767v0l10.643-13.832-4.222-3.248c-0.424-0.326-0.366-0.841 0.176-1.545v0l0.496-0.644c0.541-0.704 1.024-0.892 1.448-0.566v0l11.641 8.957c0.446 0.343 0.398 0.866-0.144 1.57v0l-0.495 0.644c-0.541 0.704-1.035 0.884-1.481 0.541v0l-4.165-3.205-10.642 13.832c-0.178 0.231-0.413 0.332-0.708 0.302-0.294-0.029-0.669-0.22-1.125-0.571z" fill="white"></path><path d="M225.214 52.407v0c-1.722-1.709-2.526-3.515-2.414-5.417 0.108-1.907 1.112-3.818 3.012-5.733v0c1.914-1.929 3.825-2.954 5.731-3.076 1.902-0.127 3.714 0.664 5.436 2.373v0c1.707 1.695 2.5 3.489 2.377 5.382-0.122 1.893-1.141 3.804-3.055 5.733v0c-1.9 1.914-3.791 2.944-5.673 3.09-1.887 0.141-3.692-0.643-5.414-2.352zM227.405 50.156v0c0.827 0.821 1.736 1.112 2.727 0.874 1.001-0.239 2.114-0.976 3.341-2.212v0c1.212-1.222 1.932-2.331 2.158-3.328 0.236-0.998-0.06-1.907-0.887-2.728v0c-0.822-0.816-1.732-1.112-2.727-0.888-0.996 0.224-2.114 0.961-3.355 2.212v0c-1.212 1.222-1.932 2.336-2.159 3.343-0.221 1.002 0.079 1.912 0.902 2.727z" fill="white"></path><path d="M236.097 65.158v0c-0.69-0.931-1.043-1.938-1.061-3.021-0.018-1.083 0.329-2.192 1.04-3.326 0.712-1.134 1.792-2.238 3.241-3.31v0c1.351-1 2.671-1.67 3.962-2.011 1.3-0.339 2.514-0.34 3.641-0.002 1.127 0.338 2.086 1.04 2.876 2.107v0c0.484 0.653 0.817 1.297 0.998 1.929 0.191 0.634 0.287 1.196 0.287 1.685v0l5.75-4.258c0.234-0.173 0.495-0.198 0.782-0.073 0.287 0.125 0.609 0.43 0.968 0.915v0l0.351 0.474c0.347 0.468 0.536 0.855 0.568 1.16 0.036 0.311-0.063 0.553-0.297 0.726v0l-13.952 10.332c-0.719 0.532-1.277 0.98-1.675 1.341-0.407 0.361-0.723 0.658-0.947 0.891-0.229 0.237-0.417 0.41-0.564 0.519v0c-0.169 0.125-0.373 0.129-0.612 0.011-0.243-0.123-0.496-0.299-0.757-0.527-0.266-0.233-0.504-0.47-0.715-0.71-0.221-0.241-0.38-0.427-0.477-0.558v0c-0.137-0.185-0.193-0.363-0.167-0.534 0.031-0.175 0.145-0.39 0.343-0.646 0.197-0.247 0.491-0.578 0.882-0.995v0c-0.538 0.036-1.084-0.024-1.637-0.179-0.557-0.161-1.074-0.398-1.551-0.711-0.481-0.319-0.906-0.729-1.277-1.229zM239.402 64.19v0c0.367 0.496 0.857 0.833 1.47 1.011 0.607 0.183 1.228 0.246 1.861 0.19v0l5.922-4.385c0.024-0.457-0.037-0.938-0.184-1.445-0.146-0.516-0.378-0.989-0.697-1.419v0c-0.605-0.817-1.428-1.177-2.47-1.08-1.032 0.098-2.231 0.653-3.598 1.665v0c-1.367 1.012-2.24 1.979-2.62 2.902-0.37 0.923-0.265 1.777 0.316 2.561z" fill="white"></path><path d="M245.284 79.642v0c-0.758-1.431-0.955-2.7-0.59-3.806 0.359-1.103 1.143-1.975 2.352-2.615v0c0.701-0.371 1.416-0.605 2.148-0.701 0.737-0.099 1.495 0.021 2.273 0.36 0.778 0.339 1.587 0.984 2.428 1.934 0.847 0.947 1.727 2.283 2.641 4.007v0l0.988-0.524c0.383-0.203 0.671-0.455 0.864-0.757 0.193-0.302 0.272-0.673 0.238-1.115-0.032-0.436-0.203-0.947-0.514-1.534v0c-0.381-0.719-0.797-1.315-1.247-1.789-0.451-0.474-0.854-0.859-1.21-1.153-0.356-0.295-0.576-0.523-0.662-0.685v0c-0.06-0.114-0.047-0.263 0.04-0.447 0.089-0.193 0.215-0.39 0.377-0.59 0.162-0.201 0.336-0.385 0.523-0.554 0.178-0.171 0.33-0.29 0.456-0.356v0c0.222-0.117 0.521-0.073 0.899 0.133 0.375 0.2 0.789 0.506 1.244 0.916 0.453 0.42 0.898 0.92 1.336 1.501 0.435 0.575 0.817 1.173 1.148 1.796v0c0.524 0.988 0.871 1.897 1.042 2.726 0.168 0.824 0.171 1.574 0.008 2.251-0.16 0.668-0.457 1.258-0.891 1.772-0.433 0.513-0.979 0.945-1.638 1.293v0l-5.496 2.913c-0.88 0.466-1.555 0.851-2.024 1.153-0.472 0.311-0.822 0.562-1.05 0.752-0.229 0.19-0.424 0.328-0.586 0.414v0c-0.15 0.079-0.328 0.047-0.534-0.096-0.204-0.153-0.413-0.352-0.628-0.599-0.218-0.252-0.414-0.513-0.587-0.782-0.182-0.272-0.316-0.488-0.402-0.65v0c-0.136-0.257-0.144-0.495-0.022-0.713 0.116-0.215 0.303-0.433 0.562-0.655 0.262-0.215 0.532-0.435 0.812-0.66v0c-0.289-0.054-0.694-0.173-1.213-0.358-0.517-0.179-1.057-0.49-1.623-0.934-0.556-0.442-1.044-1.057-1.462-1.848zM248.554 79.105v0c0.244 0.461 0.549 0.84 0.914 1.138 0.371 0.294 0.776 0.524 1.216 0.69 0.44 0.165 0.879 0.263 1.317 0.291v0l2.083-1.104c-0.476-0.898-0.919-1.626-1.329-2.183-0.41-0.557-0.808-0.975-1.194-1.254-0.376-0.276-0.762-0.417-1.155-0.423-0.394-0.006-0.783 0.093-1.167 0.296v0c-0.491 0.26-0.804 0.61-0.939 1.05-0.132 0.431-0.048 0.93 0.254 1.499z" fill="white"></path><path d="M246.319 97.134l-0.145-0.412c-0.173-0.492-0.247-0.879-0.224-1.161 0.023-0.281 0.125-0.453 0.304-0.515v0c0.058-0.02 0.123-0.039 0.195-0.058 0.068-0.01 0.183-0.01 0.344-0.002v0l7.523 0.227-2.773 0.908 13.529-10.874c0.07-0.046 0.146-0.094 0.229-0.145 0.076-0.048 0.156-0.087 0.239-0.116v0c0.192-0.067 0.384 0.009 0.576 0.229 0.183 0.216 0.371 0.599 0.564 1.149v0l0.249 0.709c0.13 0.371 0.203 0.701 0.218 0.99 0.009 0.291-0.078 0.516-0.26 0.673v0l-8.972 6.572 0.04 0.115 11.102-0.5c0.24 0.009 0.448 0.13 0.623 0.363 0.169 0.235 0.321 0.548 0.458 0.938v0l0.175 0.499c0.193 0.55 0.283 0.96 0.27 1.23-0.019 0.272-0.125 0.442-0.317 0.509v0c-0.083 0.029-0.165 0.051-0.246 0.065-0.079 0.021-0.174 0.025-0.286 0.014v0l-22.247-0.072c-0.244 0-0.463-0.121-0.655-0.362-0.199-0.239-0.37-0.563-0.513-0.973z" fill="white"></path><path d="M9.769 177.23l-0.18-0.53c-0.187-0.552-0.25-0.981-0.189-1.288 0.063-0.3 0.232-0.497 0.509-0.59v0l19.035-6.44c0.276-0.093 0.53-0.04 0.763 0.161 0.234 0.207 0.445 0.586 0.631 1.138v0l0.3 0.886c0.106 0.315 0.169 0.583 0.187 0.806 0.018 0.223 0 0.444-0.055 0.662-0.057 0.212-0.177 0.439-0.36 0.68v0l-8.868 11.563c-0.221 0.318-0.472 0.625-0.751 0.919-0.288 0.291-0.559 0.579-0.813 0.865v0l0.068 0.106c0.327-0.132 0.659-0.273 0.995-0.422 0.332-0.141 0.716-0.285 1.152-0.433v0l11.197-3.788c0.276-0.093 0.53-0.04 0.763 0.16 0.234 0.207 0.445 0.586 0.632 1.139v0l0.179 0.529c0.193 0.571 0.257 1.004 0.192 1.298-0.065 0.294-0.236 0.487-0.512 0.581v0l-19.035 6.439c-0.276 0.093-0.529 0.043-0.759-0.151-0.23-0.194-0.442-0.577-0.635-1.148v0l-0.3-0.885c-0.087-0.257-0.146-0.494-0.177-0.713-0.031-0.218-0.026-0.417 0.014-0.595 0.04-0.178 0.127-0.354 0.261-0.528v0l9.172-11.934c0.228-0.299 0.481-0.599 0.757-0.9 0.284-0.303 0.552-0.598 0.807-0.884v0l-0.068-0.106c-0.321 0.151-0.652 0.292-0.995 0.422-0.344 0.124-0.732 0.258-1.162 0.404v0l-11.371 3.847c-0.276 0.093-0.528 0.046-0.756-0.142-0.226-0.181-0.435-0.557-0.628-1.128z" fill="white"></path><path d="M21.423 204.885v0c-1.172-2.124-1.437-4.083-0.794-5.878 0.639-1.8 2.14-3.352 4.5-4.655v0c2.379-1.313 4.5-1.761 6.365-1.342 1.861 0.412 3.377 1.681 4.55 3.804v0c1.163 2.106 1.419 4.05 0.77 5.833-0.649 1.783-2.163 3.33-4.542 4.643v0c-2.361 1.303-4.466 1.761-6.314 1.372-1.851-0.395-3.363-1.654-4.535-3.777zM24.158 203.34v0c0.563 1.02 1.354 1.555 2.372 1.605 1.027 0.052 2.303-0.343 3.828-1.184v0c1.507-0.832 2.509-1.695 3.006-2.589 0.507-0.891 0.478-1.847-0.085-2.867v0c-0.56-1.014-1.349-1.554-2.368-1.618-1.019-0.065-2.299 0.329-3.841 1.18v0c-1.507 0.832-2.51 1.699-3.011 2.602-0.494 0.9-0.461 1.857 0.099 2.871z" fill="white"></path><path d="M31.64 220.403v0c-0.935-1.222-1.318-2.392-1.15-3.51 0.174-1.123 0.912-2.182 2.214-3.178v0l8.525-6.522c0.231-0.177 0.487-0.211 0.768-0.101 0.28 0.11 0.597 0.396 0.951 0.859v0l0.395 0.516c0.366 0.479 0.566 0.868 0.599 1.168 0.037 0.305-0.061 0.545-0.292 0.722v0l-8.105 6.201c-0.544 0.416-0.863 0.874-0.958 1.373-0.097 0.509 0.081 1.06 0.534 1.652v0c0.239 0.312 0.544 0.582 0.914 0.811 0.367 0.223 0.771 0.383 1.212 0.48 0.437 0.092 0.876 0.102 1.316 0.03v0l8.299-6.349c0.231-0.177 0.487-0.211 0.767-0.101 0.28 0.11 0.597 0.396 0.952 0.859v0l0.414 0.541c0.354 0.463 0.547 0.844 0.58 1.143 0.037 0.305-0.061 0.545-0.292 0.723v0l-8.154 6.237c-0.71 0.543-1.264 0.997-1.66 1.36-0.398 0.372-0.706 0.677-0.926 0.914-0.23 0.235-0.417 0.409-0.562 0.519v0c-0.167 0.128-0.371 0.134-0.612 0.02-0.241-0.114-0.496-0.286-0.765-0.515-0.265-0.224-0.507-0.457-0.727-0.698-0.22-0.232-0.382-0.416-0.485-0.551v0c-0.136-0.178-0.195-0.355-0.176-0.53 0.028-0.175 0.141-0.39 0.34-0.644 0.193-0.25 0.48-0.589 0.86-1.017v0c-0.53-0.013-1.095-0.109-1.694-0.29-0.594-0.185-1.156-0.451-1.685-0.798-0.528-0.355-0.994-0.797-1.397-1.324z" fill="white"></path><path d="M43.808 234.216l-0.439-0.438c-0.412-0.412-0.654-0.764-0.726-1.056-0.072-0.292-0.005-0.541 0.201-0.748v0l7.256-7.262c0.627-0.628 1.116-1.155 1.465-1.582 0.35-0.427 0.618-0.767 0.805-1.021 0.182-0.259 0.34-0.455 0.474-0.589v0c0.129-0.129 0.323-0.156 0.582-0.08 0.254 0.081 0.525 0.223 0.812 0.424 0.283 0.196 0.551 0.397 0.806 0.604 0.249 0.201 0.434 0.362 0.553 0.481v0c0.158 0.158 0.237 0.328 0.238 0.51 0 0.172-0.084 0.41-0.251 0.712-0.168 0.302-0.443 0.717-0.826 1.243v0c0.546-0.221 1.085-0.333 1.617-0.338 0.537-0.01 1.04 0.071 1.509 0.244 0.47 0.182 0.872 0.44 1.208 0.775v0c0.364 0.364 0.537 0.68 0.518 0.949-0.024 0.273-0.182 0.556-0.474 0.848v0c-0.134 0.134-0.321 0.302-0.561 0.504-0.244 0.197-0.508 0.379-0.79 0.546-0.287 0.173-0.551 0.297-0.791 0.374-0.244 0.082-0.431 0.058-0.56-0.071v0c-0.12-0.12-0.216-0.287-0.288-0.503-0.072-0.225-0.247-0.477-0.525-0.755v0c-0.355-0.354-0.762-0.584-1.222-0.689-0.465-0.11-0.925-0.086-1.38 0.072v0l-7.385 7.392c-0.206 0.206-0.455 0.273-0.748 0.201-0.292-0.072-0.652-0.321-1.078-0.747z" fill="white"></path><path d="M54.079 243.574l-0.529-0.446c-0.441-0.371-0.712-0.701-0.813-0.99-0.097-0.285-0.051-0.539 0.136-0.762v0l9.396-11.157c0.188-0.223 0.43-0.311 0.728-0.264 0.303 0.051 0.674 0.262 1.115 0.633v0l0.528 0.445c0.441 0.371 0.712 0.701 0.814 0.991 0.097 0.285 0.051 0.539-0.137 0.762v0l-9.396 11.156c-0.188 0.223-0.43 0.311-0.728 0.265-0.303-0.051-0.674-0.262-1.114-0.633zM65.496 229.481v0c-0.539-0.454-0.878-0.841-1.016-1.161-0.138-0.32-0.113-0.591 0.075-0.814v0l1.44-1.71c0.175-0.207 0.431-0.27 0.77-0.189 0.339 0.082 0.778 0.349 1.317 0.804v0c0.523 0.441 0.859 0.816 1.005 1.125 0.142 0.315 0.12 0.584-0.068 0.807v0l-1.44 1.71c-0.188 0.223-0.451 0.294-0.79 0.212-0.339-0.082-0.77-0.343-1.293-0.784z" fill="white"></path><path d="M64.253 251.146v0c-0.517-0.348-0.997-0.733-1.44-1.155-0.443-0.421-0.81-0.848-1.099-1.279-0.295-0.436-0.497-0.833-0.606-1.193-0.105-0.365-0.077-0.668 0.086-0.91v0c0.114-0.169 0.331-0.345 0.651-0.53 0.326-0.181 0.66-0.319 1.003-0.415 0.337-0.1 0.584-0.097 0.741 0.009v0c0.101 0.068 0.223 0.257 0.367 0.566 0.143 0.309 0.353 0.659 0.629 1.049 0.274 0.381 0.662 0.74 1.162 1.077v0c0.635 0.428 1.192 0.632 1.672 0.611 0.483-0.026 0.87-0.255 1.162-0.688v0c0.231-0.343 0.321-0.683 0.269-1.019-0.051-0.337-0.193-0.702-0.426-1.096-0.233-0.394-0.509-0.821-0.828-1.281v0c-0.265-0.383-0.529-0.798-0.792-1.244-0.259-0.452-0.456-0.936-0.59-1.452-0.14-0.519-0.157-1.07-0.051-1.652 0.102-0.576 0.375-1.193 0.818-1.851v0c0.568-0.843 1.243-1.438 2.024-1.786 0.782-0.348 1.632-0.457 2.55-0.329 0.909 0.13 1.81 0.496 2.704 1.098v0c0.416 0.28 0.816 0.59 1.199 0.931 0.38 0.346 0.72 0.702 1.021 1.068 0.301 0.366 0.511 0.716 0.629 1.049 0.117 0.324 0.1 0.598-0.052 0.823v0c-0.117 0.174-0.331 0.37-0.64 0.586-0.309 0.217-0.611 0.385-0.904 0.506-0.298 0.126-0.522 0.138-0.674 0.036v0c-0.124-0.083-0.311-0.344-0.563-0.784-0.248-0.445-0.709-0.894-1.383-1.348v0c-0.495-0.333-0.965-0.507-1.413-0.523-0.442-0.012-0.802 0.191-1.083 0.606v0c-0.197 0.292-0.283 0.59-0.258 0.893 0.019 0.299 0.136 0.635 0.351 1.008 0.218 0.368 0.496 0.78 0.834 1.236v0c0.308 0.404 0.597 0.848 0.867 1.332 0.276 0.488 0.475 0.998 0.599 1.531 0.129 0.536 0.144 1.102 0.045 1.697-0.104 0.592-0.376 1.213-0.815 1.865v0c-0.557 0.826-1.255 1.426-2.095 1.8-0.834 0.377-1.735 0.502-2.702 0.373-0.967-0.129-1.957-0.534-2.969-1.215z" fill="white"></path><path d="M76.611 258.237l-0.617-0.313c-0.514-0.26-0.854-0.519-1.019-0.777-0.159-0.255-0.173-0.513-0.041-0.773v0l9.791-19.344c0.132-0.26 0.347-0.401 0.648-0.424 0.306-0.02 0.716 0.101 1.23 0.36v0l0.562 0.285c0.532 0.269 0.881 0.533 1.046 0.792 0.159 0.255 0.173 0.513 0.042 0.773v0l-3.709 7.327c0.456-0.21 0.961-0.36 1.516-0.451 0.555-0.091 1.134-0.094 1.736-0.01 0.597 0.082 1.182 0.268 1.757 0.559v0c0.943 0.477 1.648 1.043 2.114 1.697 0.473 0.657 0.699 1.394 0.68 2.212-0.016 0.812-0.283 1.729-0.8 2.751v0l-4.788 9.459c-0.132 0.26-0.347 0.401-0.647 0.424-0.3 0.023-0.71-0.097-1.23-0.361v0l-0.581-0.294c-0.538-0.272-0.887-0.536-1.046-0.791-0.165-0.258-0.182-0.518-0.051-0.778v0l4.549-8.987c0.337-0.665 0.438-1.255 0.305-1.771-0.137-0.51-0.565-0.947-1.285-1.311v0c-0.333-0.168-0.709-0.272-1.13-0.31-0.427-0.042-0.849-0.004-1.264 0.111-0.416 0.116-0.806 0.302-1.171 0.558v0l-4.719 9.323c-0.132 0.26-0.347 0.401-0.648 0.424-0.306 0.02-0.716-0.101-1.23-0.36z" fill="white"></path><path d="M95.334 266.529l-0.649-0.238c-0.541-0.199-0.908-0.417-1.102-0.654-0.188-0.235-0.232-0.489-0.131-0.763v0l5.03-13.691c0.1-0.274 0.298-0.439 0.594-0.497 0.302-0.055 0.723 0.017 1.263 0.216v0l0.649 0.238c0.541 0.199 0.908 0.417 1.103 0.654 0.188 0.235 0.232 0.489 0.131 0.763v0l-5.03 13.691c-0.1 0.274-0.298 0.439-0.594 0.497-0.302 0.055-0.723-0.017-1.264-0.216zM101.263 249.389v0c-0.661-0.243-1.112-0.491-1.35-0.745-0.239-0.254-0.308-0.517-0.208-0.791v0l0.771-2.099c0.093-0.254 0.313-0.401 0.66-0.44 0.346-0.039 0.85 0.063 1.512 0.307v0c0.642 0.236 1.085 0.475 1.329 0.715 0.241 0.247 0.312 0.508 0.211 0.782v0l-0.771 2.099c-0.1 0.274-0.324 0.43-0.671 0.468-0.346 0.039-0.841-0.06-1.483-0.296z" fill="white"></path><path d="M106.079 269.593l-0.672-0.161c-0.56-0.134-0.951-0.308-1.171-0.52-0.214-0.211-0.287-0.459-0.22-0.743v0l2.389-9.984c0.207-0.863 0.351-1.567 0.432-2.112 0.075-0.546 0.122-0.978 0.142-1.294 0.026-0.314 0.062-0.564 0.106-0.748v0c0.043-0.178 0.194-0.302 0.454-0.372 0.259-0.063 0.56-0.085 0.904-0.066 0.35 0.021 0.684 0.052 1.002 0.094 0.324 0.043 0.565 0.083 0.724 0.121v0c0.224 0.054 0.38 0.157 0.469 0.31 0.097 0.149 0.151 0.374 0.162 0.677 0.011 0.302 0.005 0.736-0.019 1.302v0c0.439-0.32 0.934-0.599 1.486-0.837 0.56-0.242 1.147-0.398 1.763-0.466 0.614-0.062 1.234-0.018 1.86 0.131v0c1.028 0.246 1.845 0.633 2.45 1.161 0.612 0.53 1.003 1.195 1.174 1.995 0.172 0.794 0.125 1.747-0.141 2.861v0l-2.466 10.311c-0.068 0.283-0.245 0.471-0.532 0.562-0.287 0.092-0.713 0.07-1.28-0.065v0l-0.633-0.152c-0.587-0.14-0.987-0.316-1.201-0.527-0.221-0.213-0.297-0.461-0.229-0.745v0l2.343-9.797c0.173-0.725 0.135-1.323-0.114-1.793-0.251-0.464-0.769-0.79-1.553-0.978v0c-0.362-0.087-0.753-0.1-1.172-0.04-0.425 0.059-0.826 0.192-1.204 0.402-0.378 0.209-0.714 0.481-1.01 0.814v0l-2.431 10.162c-0.068 0.283-0.245 0.471-0.531 0.563-0.293 0.09-0.72 0.068-1.281-0.066z" fill="white"></path><path d="M129.393 279.949v0c-1.513-0.116-2.779-0.366-3.796-0.75-1.024-0.378-1.78-0.901-2.265-1.57-0.492-0.677-0.702-1.488-0.629-2.433v0c0.043-0.561 0.197-1.065 0.463-1.515 0.259-0.449 0.612-0.843 1.059-1.182 0.441-0.34 0.957-0.603 1.548-0.789v0l0.048-0.088c-0.4-0.282-0.695-0.638-0.887-1.067-0.198-0.43-0.277-0.915-0.235-1.456v0c0.046-0.595 0.246-1.123 0.601-1.585 0.362-0.462 0.832-0.837 1.411-1.125v0c-0.772-0.474-1.353-1.096-1.743-1.867-0.383-0.77-0.534-1.682-0.453-2.736v0c0.092-1.196 0.441-2.168 1.05-2.916 0.607-0.742 1.416-1.271 2.425-1.588 1.016-0.316 2.143-0.427 3.379-0.333v0c0.392 0.03 0.773 0.073 1.143 0.129 0.369 0.062 0.716 0.147 1.04 0.253v0l5.22 0.4c0.311 0.024 0.519 0.148 0.624 0.374 0.105 0.232 0.139 0.575 0.104 1.027v0l-0.035 0.466c-0.065 0.845-0.334 1.249-0.807 1.213v0c-0.101-0.008-0.266-0.031-0.494-0.069-0.228-0.038-0.462-0.086-0.703-0.145-0.247-0.06-0.443-0.116-0.588-0.168v0l-0.038 0.089c0.154 0.202 0.283 0.429 0.386 0.682 0.109 0.26 0.178 0.52 0.206 0.781 0.034 0.261 0.041 0.526 0.02 0.796v0c-0.089 1.162-0.426 2.105-1.012 2.828-0.586 0.723-1.366 1.244-2.342 1.564-0.969 0.32-2.072 0.432-3.308 0.338v0c-0.622-0.048-1.112-0.038-1.47 0.03-0.359 0.068-0.613 0.194-0.764 0.379-0.15 0.186-0.236 0.424-0.258 0.715v0c-0.027 0.351 0.087 0.632 0.343 0.841 0.25 0.203 0.604 0.372 1.062 0.51 0.458 0.144 0.975 0.272 1.551 0.384 0.575 0.119 1.167 0.242 1.776 0.37v0c0.84 0.214 1.62 0.498 2.34 0.853 0.72 0.361 1.288 0.846 1.703 1.455 0.408 0.616 0.573 1.43 0.496 2.444v0c-0.079 1.034-0.459 1.905-1.138 2.614-0.679 0.702-1.619 1.218-2.82 1.548-1.2 0.323-2.605 0.422-4.213 0.299zM129.965 276.873v0c1.243 0.095 2.178 0.004 2.804-0.274 0.626-0.271 0.961-0.698 1.005-1.279v0c0.022-0.291-0.047-0.54-0.207-0.75-0.161-0.209-0.409-0.388-0.744-0.536-0.328-0.154-0.719-0.283-1.173-0.385-0.447-0.109-0.949-0.215-1.505-0.32-0.549-0.103-1.131-0.223-1.746-0.358v0c-0.535 0.149-0.974 0.387-1.319 0.715-0.351 0.326-0.543 0.706-0.577 1.138v0c-0.028 0.372 0.072 0.702 0.301 0.992 0.229 0.289 0.602 0.522 1.119 0.697 0.517 0.176 1.197 0.296 2.042 0.36zM130.785 264.581v0c0.52 0.04 0.992-0.002 1.416-0.126 0.424-0.124 0.778-0.348 1.061-0.673 0.289-0.318 0.456-0.767 0.501-1.348v0c0.045-0.581-0.052-1.051-0.29-1.409-0.23-0.364-0.546-0.64-0.946-0.827-0.401-0.18-0.861-0.29-1.381-0.33v0c-0.493-0.038-0.958 0.001-1.396 0.117-0.438 0.123-0.795 0.347-1.071 0.673-0.269 0.319-0.426 0.769-0.47 1.35v0c-0.067 0.872 0.153 1.504 0.66 1.896 0.514 0.393 1.152 0.618 1.916 0.677z" fill="white"></path><path d="M158.309 279.056l-0.433 0.061c-0.517 0.073-0.911 0.07-1.182-0.008-0.271-0.078-0.42-0.211-0.446-0.399v0c-0.009-0.06-0.015-0.128-0.018-0.203 0.004-0.069 0.026-0.182 0.065-0.337v0l1.696-7.333 0.347 2.897-8.013-15.396c-0.031-0.078-0.064-0.162-0.097-0.253-0.032-0.084-0.055-0.17-0.067-0.258v0c-0.028-0.201 0.084-0.375 0.337-0.519 0.247-0.138 0.66-0.247 1.237-0.329v0l0.745-0.105c0.389-0.055 0.727-0.061 1.013-0.02 0.287 0.048 0.49 0.177 0.609 0.387v0l4.687 10.086 0.121-0.017 1.684-10.985c0.056-0.234 0.215-0.414 0.478-0.54 0.264-0.119 0.6-0.208 1.01-0.265v0l0.523-0.074c0.577-0.081 0.997-0.089 1.259-0.024 0.263 0.072 0.409 0.209 0.438 0.411v0c0.012 0.087 0.017 0.172 0.015 0.254 0.005 0.081-0.009 0.176-0.042 0.283v0l-4.428 21.802c-0.048 0.239-0.21 0.43-0.484 0.571-0.273 0.148-0.625 0.252-1.054 0.313z" fill="white"></path><path d="M178.059 268.57v0c-2.337 0.652-4.304 0.458-5.902-0.581-1.605-1.037-2.769-2.854-3.493-5.452v0c-0.73-2.617-0.677-4.785 0.16-6.503 0.83-1.716 2.413-2.899 4.75-3.551v0c2.317-0.646 4.268-0.448 5.853 0.595 1.585 1.042 2.743 2.872 3.473 5.489v0c0.724 2.598 0.685 4.751-0.12 6.46-0.81 1.71-2.384 2.891-4.72 3.543zM177.186 265.553v0c1.123-0.313 1.825-0.959 2.109-1.939 0.287-0.988 0.197-2.32-0.271-3.998v0c-0.462-1.658-1.071-2.832-1.826-3.521-0.75-0.698-1.687-0.891-2.81-0.578v0c-1.116 0.311-1.823 0.955-2.121 1.931-0.298 0.976-0.21 2.313 0.264 4.011v0c0.462 1.658 1.075 2.834 1.839 3.528 0.762 0.688 1.701 0.876 2.816 0.566z" fill="white"></path><path d="M195.515 262.198v0c-1.404 0.629-2.631 0.732-3.68 0.312-1.052-0.427-1.914-1.389-2.584-2.886v0l-4.386-9.796c-0.119-0.266-0.093-0.523 0.078-0.771 0.171-0.247 0.523-0.49 1.055-0.728v0l0.594-0.266c0.55-0.246 0.975-0.351 1.273-0.314 0.305 0.034 0.517 0.184 0.636 0.45v0l4.171 9.314c0.28 0.625 0.652 1.041 1.116 1.249 0.473 0.211 1.05 0.165 1.73-0.14v0c0.359-0.161 0.692-0.395 0.999-0.703 0.301-0.306 0.55-0.662 0.746-1.069 0.19-0.404 0.301-0.829 0.332-1.274v0l-4.27-9.537c-0.119-0.266-0.093-0.523 0.079-0.77 0.171-0.247 0.523-0.49 1.055-0.728v0l0.621-0.278c0.532-0.238 0.947-0.339 1.246-0.302 0.305 0.034 0.517 0.184 0.636 0.45v0l4.195 9.37c0.366 0.816 0.679 1.459 0.941 1.928 0.271 0.473 0.496 0.843 0.676 1.112 0.176 0.277 0.302 0.5 0.377 0.667v0c0.086 0.192 0.045 0.392-0.121 0.6-0.167 0.208-0.392 0.417-0.678 0.626-0.279 0.206-0.561 0.389-0.846 0.546-0.277 0.161-0.493 0.276-0.648 0.346v0c-0.204 0.091-0.39 0.108-0.557 0.049-0.164-0.068-0.347-0.227-0.548-0.479-0.199-0.245-0.463-0.602-0.792-1.071v0c-0.134 0.513-0.358 1.04-0.672 1.582-0.317 0.535-0.705 1.021-1.163 1.456-0.467 0.432-1.004 0.784-1.611 1.055z" fill="white"></path><path d="M223.653 245.034l-0.692 0.534c-0.446 0.343-0.818 0.531-1.118 0.564-0.299 0.034-0.538-0.065-0.715-0.296v0l-10.643-13.832-4.221 3.248c-0.424 0.326-0.907 0.138-1.448-0.565v0l-0.496-0.645c-0.541-0.704-0.6-1.219-0.176-1.545v0l11.641-8.956c0.446-0.343 0.939-0.163 1.48 0.54v0l0.496 0.645c0.541 0.704 0.589 1.227 0.144 1.57v0l-4.165 3.204 10.643 13.832c0.178 0.231 0.215 0.485 0.111 0.761-0.104 0.276-0.384 0.59-0.841 0.941z" fill="white"></path><path d="M237.064 233.371v0c-1.722 1.709-3.534 2.5-5.435 2.373-1.907-0.122-3.81-1.14-5.71-3.055v0c-1.914-1.929-2.925-3.847-3.033-5.754-0.113-1.903 0.692-3.708 2.414-5.417v0c1.707-1.695 3.507-2.474 5.399-2.337 1.892 0.136 3.795 1.169 5.71 3.097v0c1.9 1.914 2.916 3.813 3.047 5.697 0.127 1.888-0.67 3.687-2.392 5.396zM234.83 231.163v0c0.827-0.821 1.125-1.728 0.894-2.721-0.231-1.002-0.96-2.121-2.186-3.357v0c-1.212-1.222-2.317-1.949-3.313-2.183-0.996-0.243-1.907 0.046-2.734 0.867v0c-0.822 0.816-1.125 1.723-0.909 2.72 0.217 0.997 0.946 2.121 2.187 3.372v0c1.212 1.222 2.321 1.949 3.327 2.183 1.001 0.229 1.912-0.065 2.734-0.881z" fill="white"></path><path d="M249.615 218.692v0c-0.69 0.931-1.55 1.563-2.58 1.896-1.031 0.333-2.192 0.324-3.485-0.026-1.292-0.35-2.663-1.061-4.111-2.134v0c-1.351-1-2.377-2.068-3.079-3.203-0.704-1.145-1.058-2.306-1.064-3.482-0.006-1.176 0.387-2.298 1.177-3.366v0c0.484-0.653 1.002-1.159 1.554-1.518 0.551-0.368 1.06-0.623 1.528-0.765v0l-5.751-4.259c-0.234-0.173-0.333-0.415-0.297-0.726 0.036-0.311 0.234-0.708 0.593-1.193v0l0.351-0.473c0.347-0.468 0.661-0.762 0.944-0.882 0.287-0.125 0.547-0.101 0.781 0.072v0l13.951 10.332c0.719 0.532 1.309 0.936 1.772 1.211 0.464 0.284 0.84 0.5 1.128 0.646 0.294 0.15 0.514 0.279 0.661 0.388v0c0.169 0.125 0.232 0.319 0.189 0.582-0.047 0.269-0.142 0.561-0.283 0.878-0.146 0.322-0.303 0.619-0.471 0.892-0.166 0.282-0.298 0.488-0.394 0.618v0c-0.137 0.185-0.291 0.29-0.462 0.316-0.176 0.021-0.416-0.025-0.718-0.14-0.293-0.116-0.696-0.301-1.209-0.554v0c0.191 0.504 0.294 1.044 0.306 1.619 0.009 0.58-0.067 1.144-0.227 1.69-0.165 0.553-0.433 1.079-0.804 1.581zM247.725 215.812v0c0.367-0.496 0.546-1.062 0.539-1.7-0.003-0.634-0.123-1.246-0.361-1.836v0l-5.922-4.386c-0.444 0.11-0.887 0.309-1.328 0.598-0.451 0.29-0.836 0.65-1.154 1.08v0c-0.605 0.817-0.709 1.709-0.313 2.678 0.395 0.958 1.276 1.944 2.642 2.956v0c1.367 1.012 2.547 1.565 3.54 1.659 0.991 0.085 1.777-0.265 2.358-1.049z" fill="white"></path><path d="M260.148 202.073v0c-0.758 1.431-1.698 2.306-2.818 2.626-1.114 0.322-2.276 0.163-3.485-0.478v0c-0.701-0.371-1.296-0.832-1.786-1.384-0.496-0.554-0.822-1.249-0.979-2.083-0.156-0.834-0.077-1.866 0.237-3.095 0.308-1.232 0.919-2.711 1.833-4.436v0l-0.988-0.523c-0.383-0.203-0.754-0.3-1.111-0.29-0.358 0.01-0.71 0.153-1.056 0.429-0.343 0.271-0.67 0.7-0.981 1.287v0c-0.381 0.719-0.641 1.397-0.78 2.036-0.139 0.639-0.231 1.189-0.276 1.649-0.044 0.46-0.109 0.77-0.195 0.932v0c-0.06 0.114-0.191 0.186-0.391 0.218-0.21 0.034-0.444 0.041-0.701 0.02-0.257-0.021-0.508-0.062-0.752-0.122-0.241-0.051-0.425-0.11-0.55-0.177v0c-0.222-0.117-0.353-0.39-0.395-0.819-0.045-0.422-0.025-0.937 0.059-1.544 0.093-0.61 0.257-1.259 0.492-1.948 0.231-0.683 0.512-1.335 0.842-1.958v0c0.524-0.988 1.08-1.786 1.671-2.393 0.587-0.601 1.206-1.025 1.858-1.271 0.642-0.242 1.298-0.329 1.966-0.258 0.668 0.07 1.332 0.28 1.99 0.629v0l5.497 2.913c0.88 0.466 1.577 0.809 2.09 1.027 0.522 0.215 0.927 0.364 1.212 0.447 0.286 0.083 0.51 0.167 0.672 0.253v0c0.15 0.079 0.223 0.245 0.22 0.496-0.012 0.254-0.06 0.54-0.143 0.856-0.086 0.322-0.192 0.631-0.318 0.924-0.122 0.303-0.226 0.536-0.312 0.698v0c-0.136 0.257-0.329 0.397-0.578 0.418-0.243 0.025-0.529-0.008-0.857-0.097-0.325-0.096-0.659-0.196-1.002-0.302v0c0.118 0.27 0.246 0.671 0.385 1.205 0.142 0.528 0.188 1.15 0.138 1.868-0.053 0.708-0.289 1.457-0.708 2.247zM257.867 199.669v0c0.244-0.461 0.387-0.926 0.429-1.395 0.035-0.472-0.002-0.937-0.113-1.394-0.11-0.457-0.276-0.875-0.497-1.253v0l-2.084-1.104c-0.476 0.898-0.829 1.673-1.06 2.325-0.231 0.652-0.353 1.216-0.367 1.692-0.017 0.466 0.083 0.864 0.299 1.194 0.217 0.329 0.516 0.596 0.899 0.799v0c0.491 0.26 0.956 0.323 1.396 0.187 0.431-0.132 0.797-0.483 1.098-1.051z" fill="white"></path><path d="M273.952 186.395l-0.144 0.413c-0.173 0.492-0.356 0.841-0.55 1.046-0.194 0.205-0.38 0.276-0.56 0.213v0c-0.058-0.02-0.12-0.046-0.188-0.077-0.059-0.035-0.149-0.106-0.27-0.213v0l-5.733-4.876 2.732 1.023-17.356 0.042c-0.083-0.008-0.173-0.018-0.27-0.03-0.09-0.01-0.176-0.03-0.259-0.059v0c-0.192-0.067-0.294-0.247-0.307-0.538-0.008-0.283 0.084-0.699 0.277-1.249v0l0.249-0.71c0.13-0.371 0.279-0.674 0.448-0.909 0.175-0.233 0.383-0.354 0.623-0.364v0l11.112 0.472 0.04-0.115-8.983-6.543c-0.182-0.157-0.268-0.381-0.259-0.673 0.015-0.289 0.091-0.629 0.228-1.019v0l0.175-0.498c0.193-0.55 0.379-0.926 0.557-1.13 0.185-0.201 0.374-0.267 0.566-0.2v0c0.083 0.029 0.161 0.064 0.233 0.103 0.074 0.033 0.152 0.089 0.232 0.168v0l17.329 13.951c0.191 0.153 0.285 0.384 0.285 0.692 0.006 0.311-0.063 0.671-0.207 1.08z" fill="white"></path><path d="M2.977 136.919c0-4.942 4.007-8.949 8.949-8.949 4.942 0 8.949 4.007 8.949 8.949 0 4.942-4.007 8.949-8.949 8.949-4.942 0-8.949-4.007-8.949-8.949z" fill="white"></path><path d="M259.125 136.919c0-4.942 4.007-8.949 8.949-8.949 4.942 0 8.949 4.007 8.949 8.949 0 4.942-4.007 8.949-8.949 8.949-4.942 0-8.949-4.007-8.949-8.949z" fill="white"></path></g><g id="SvgjsG1297"></g></svg></g></svg></g></svg></g></svg></g><defs><mask></mask></defs></svg><rect width="280" height="280" fill="black" stroke="none" visibility="hidden"></rect></g></mask><linearGradient x1="0" x2="1" y1="0.5" y2="0.5" id="df2d7282-9f51-417e-a786-9b7ccd2a97b8"><stop stop-color="#ffa62e" offset="0"></stop><stop stop-color="#f71b3d" offset="1"></stop></linearGradient><rect width="280" height="280" fill="#ffffff" mask="url(#5c458fea-6fc6-4885-8ad5-93f290106f76)" data-fill-palette-color="primary"></rect></svg><rect width="280" height="280" fill="none" stroke="none" visibility="hidden"></rect></g></svg></g></svg>