<svg xmlns="http://www.w3.org/2000/svg" version="1.1" xmlnsxlink="http://www.w3.org/1999/xlink" xmlnssvgjs="http://svgjs.dev/svgjs" width="2000" height="1247" viewBox="0 0 2000 1247"><g transform="matrix(1,0,0,1,-1.2121212121212466,0.504858299595071)"><svg viewBox="0 0 396 247" data-background-color="#c7d4e9" preserveAspectRatio="xMidYMid meet" height="1247" width="2000" xmlns="http://www.w3.org/2000/svg" xmlnsxlink="http://www.w3.org/1999/xlink"><g id="tight-bounds" transform="matrix(1,0,0,1,0.2400000000000091,-0.09999999999999432)"><svg viewBox="0 0 395.52 247.2" height="247.2" width="395.52"><g><svg></svg></g><g><svg viewBox="0 0 395.52 247.2" height="247.2" width="395.52"><mask id="ad91a903-7837-4fd9-a4d2-1fa394cf87cc"><rect width="640" height="400" fill="white"></rect><g transform="matrix(1,0,0,1,15.911724137931031,101.94331233714969)"><svg viewBox="0 0 363.6965517241379 43.31337532570061" height="43.31337532570061" width="363.6965517241379"><g><svg viewBox="0 0 363.6965517241379 43.31337532570061" height="43.31337532570061" width="363.6965517241379"><g><svg viewBox="0 0 363.6965517241379 43.31337532570061" height="43.31337532570061" width="363.6965517241379"><g><svg viewBox="0 0 363.6965517241379 43.31337532570061" height="43.31337532570061" width="363.6965517241379"><g id="SvgjsG1521"><svg viewBox="0 0 363.6965517241379 43.31337532570061" height="43.31337532570061" width="363.6965517241379" id="SvgjsSvg1520"><g><svg viewBox="0 0 363.6965517241379 43.31337532570061" height="43.31337532570061" width="363.6965517241379"><g transform="matrix(1,0,0,1,0,0)"><svg width="363.6965517241379" viewBox="-4.5 -42.85 509.8 61.6" height="43.31337532570061" data-palette-color="#2ecc40"><path d="M13.3-33L13.3-33Q16-28.85 18.85-25.13 21.7-21.4 24.68-17.7 27.65-14 30.75-9.95L30.75-9.95 29.95 0.5 29.45 0.5Q26.35-4 23.68-7.55 21-11.1 18.55-14.13 16.1-17.15 13.7-20.13 11.3-23.1 8.75-26.5L8.75-26.5Q9-28.35 9.83-29.6 10.65-30.85 11.65-31.65 12.65-32.45 13.3-33ZM13.3-33L13.3-33 9.95-28.4Q9.95-27.3 9.95-24.43 9.95-21.55 9.95-17.95L9.95-17.95Q9.95-14.85 10.1-11.35 10.25-7.85 10.6-2.95L10.6-2.95 15.65-1.9 14.95 0Q13.6-0.1 11.7-0.13 9.8-0.15 8.15-0.15L8.15-0.15Q6.65-0.15 4.93-0.1 3.2-0.05 1.65 0L1.65 0 1-1.9 6.05-2.95Q6.3-7 6.43-10.73 6.55-14.45 6.55-18.05L6.55-18.05Q6.55-21 6.48-23.88 6.4-26.75 6.3-29.7L6.3-29.7 1.1-31.05 1.7-33Q4.8-32.85 7.8-32.85L7.8-32.85Q9-32.85 10.68-32.9 12.35-32.95 13.3-33ZM37-33L37-33 37.7-31.05 33.3-30Q33-24.7 32.88-20.2 32.75-15.7 32.75-11.25L32.75-11.25Q32.75-8.45 32.8-5.58 32.85-2.7 32.9 0.5L32.9 0.5 29.75 0.5 29.15-1.65Q29.3-4.2 29.38-6.38 29.45-8.55 29.45-11.15L29.45-11.15Q29.45-15.3 29.28-20.08 29.1-24.85 28.7-30L28.7-30 24.35-31.05 24.95-33Q26.5-32.95 27.9-32.88 29.3-32.8 30.85-32.8L30.85-32.8Q32.45-32.8 34.05-32.85 35.65-32.9 37-33ZM51.55-21.7L51.55-21.7Q55.25-21.7 57.72-20.15 60.2-18.6 61.42-16.1 62.65-13.6 62.65-10.7L62.65-10.7Q62.65-7.75 61.4-5.18 60.15-2.6 57.65-1.05 55.15 0.5 51.4 0.5L51.4 0.5Q47.65 0.5 45.1-1.07 42.55-2.65 41.25-5.25 39.95-7.85 39.95-10.8L39.95-10.8Q39.95-13.7 41.22-16.18 42.5-18.65 45.07-20.18 47.65-21.7 51.55-21.7ZM46.95-11.85L46.95-11.85Q46.95-9.35 47.52-7.1 48.1-4.85 49.25-3.45 50.4-2.05 52-2.05L52-2.05Q53.9-2.05 54.82-4.13 55.75-6.2 55.75-9.3L55.75-9.3Q55.75-11.8 55.17-14.03 54.6-16.25 53.47-17.68 52.35-19.1 50.7-19.1L50.7-19.1Q48.8-19.1 47.87-17.03 46.95-14.95 46.95-11.85ZM75.4 0.85L75.4 0.85Q72.25 0.85 70.47-1.3 68.7-3.45 68.45-7.55L68.45-7.55Q68.35-9.3 68.35-11.88 68.35-14.45 68.4-18.35L68.4-18.35 64.85-18.9 64.25-20.95Q67.15-20.95 69.97-21.15 72.8-21.35 75.25-21.7L75.25-21.7Q75.15-19.4 75.02-17.48 74.9-15.55 74.9-13.58 74.9-11.6 75.05-9L75.05-9Q75.2-6.1 76.4-5 77.6-3.9 78.75-3.9L78.75-3.9Q79.95-4.15 81-5.53 82.05-6.9 82.7-8.88 83.35-10.85 83.35-12.8L83.35-12.8 84.65-8.55Q84.35-6.1 83.1-3.95 81.85-1.8 79.87-0.48 77.9 0.85 75.4 0.85ZM83.75 0L83.75 0Q83.7-1.5 83.57-3.2 83.45-4.9 83.4-7.25L83.4-7.25 83.1-18.3 79.5-18.9 78.9-20.95Q81.85-20.95 84.6-21.15 87.35-21.35 89.85-21.7L89.85-21.7Q89.85-21.7 89.82-20.55 89.8-19.4 89.77-17.7 89.75-16 89.7-14.33 89.65-12.65 89.62-11.5 89.6-10.35 89.6-10.35L89.6-10.35Q89.65-8.65 89.77-7.13 89.9-5.6 90.1-2.9L90.1-2.9 93.85-1.85 92.9 0Q91.6-0.1 90.47-0.1 89.35-0.1 87.6-0.1L87.6-0.1Q86.85-0.1 85.65-0.05 84.45 0 83.75 0ZM105.84-21.7L105.84-21.7Q105.89-20.55 105.99-19 106.09-17.45 106.19-16.18 106.29-14.9 106.29-14.45L106.29-14.45 106.64-3.1 111.59-1.85 110.84 0Q109.99-0.05 108.59-0.08 107.19-0.1 105.69-0.13 104.19-0.15 102.99-0.15L102.99-0.15Q101.44-0.15 99.64-0.1 97.84-0.05 96.34 0L96.34 0 95.59-1.85 99.64-2.9Q99.64-5.15 99.64-6.93 99.64-8.7 99.64-10.8L99.64-10.8Q99.64-11.95 99.62-12.93 99.59-13.9 99.54-15.13 99.49-16.35 99.34-18.15L99.34-18.15 95.94-18.7 95.24-20.8Q96.39-20.85 98.32-20.95 100.24-21.05 102.29-21.25 104.34-21.45 105.84-21.7ZM112.54-21.8L112.54-21.8Q113.94-21.8 115.14-21.28 116.34-20.75 117.44-19.6L117.44-19.6Q117.14-18.1 116.89-17 116.64-15.9 116.32-14.83 115.99-13.75 115.54-12.2L115.54-12.2 112.74-12.2Q112.39-14.05 111.72-15.43 111.04-16.8 109.89-17.3L109.89-17.3Q108.64-16.5 107.52-14.33 106.39-12.15 106.39-8.55L106.39-8.55 104.44-11.45Q104.84-14.25 105.99-16.6 107.14-18.95 108.82-20.38 110.49-21.8 112.54-21.8ZM130.04-21.75L130.04-21.75Q129.99-18.85 129.92-16.2 129.84-13.55 129.84-11.4L129.84-11.4Q129.84-9.55 129.92-7.15 129.99-4.75 130.04-2.9L130.04-2.9 134.04-1.85 133.19 0Q131.89-0.1 130.57-0.13 129.24-0.15 126.59-0.15L126.59-0.15Q124.14-0.15 122.77-0.1 121.39-0.05 119.84 0L119.84 0 119.04-1.85 123.29-2.9Q123.39-5.4 123.42-7.25 123.44-9.1 123.39-11.3L123.39-11.3Q123.39-12.45 123.37-13.35 123.34-14.25 123.29-15.38 123.24-16.5 123.09-18.25L123.09-18.25 119.54-18.9 118.79-20.8Q119.94-20.85 121.77-20.95 123.59-21.05 125.74-21.25 127.89-21.45 130.04-21.75ZM126.29-25.45L126.29-25.45Q124.69-25.45 123.54-26.65 122.39-27.85 122.39-29.6L122.39-29.6Q122.39-31.25 123.54-32.45 124.69-33.65 126.29-33.65L126.29-33.65Q127.89-33.65 129.04-32.45 130.19-31.25 130.19-29.6L130.19-29.6Q130.19-27.85 129.04-26.65 127.89-25.45 126.29-25.45ZM135.09-1.3L135.09-1.3Q135.49-3.2 135.76-4.48 136.04-5.75 136.24-7.25L136.24-7.25 138.74-7.25 139.54-3.35Q140.19-2.8 141.09-2.5 141.99-2.2 142.89-2.2L142.89-2.2Q144.14-2.2 145.11-2.8 146.09-3.4 146.09-4.65L146.09-4.65Q146.09-5.7 145.31-6.38 144.54-7.05 143.34-7.58 142.14-8.1 140.79-8.63 139.44-9.15 138.24-9.95 137.04-10.75 136.26-11.95 135.49-13.15 135.49-15L135.49-15Q135.49-17.55 136.74-19.03 137.99-20.5 140.01-21.15 142.04-21.8 144.29-21.8L144.29-21.8Q146.04-21.8 147.94-21.4 149.84-21 151.39-20.25L151.39-20.25Q150.99-18.5 150.66-17.15 150.34-15.8 150.09-14.5L150.09-14.5 147.49-14.55 146.84-17.95Q145.94-19.15 143.89-19.15L143.89-19.15Q142.79-19.15 141.86-18.65 140.94-18.15 140.94-17L140.94-17Q140.94-15.9 141.74-15.23 142.54-14.55 143.81-14.05 145.09-13.55 146.54-12.98 147.99-12.4 149.26-11.55 150.54-10.7 151.34-9.38 152.14-8.05 152.14-6L152.14-6Q152.14-3.6 150.84-2.18 149.54-0.75 147.39-0.13 145.24 0.5 142.74 0.5L142.74 0.5Q140.84 0.5 138.89 0.1 136.94-0.3 135.09-1.3ZM164.74-37.25L164.74-37.25Q164.74-32.2 164.74-27.75 164.74-23.3 164.71-19.9 164.69-16.5 164.64-14.55L164.64-14.55 164.79-2.9 168.49-1.85 167.79 0Q166.14-0.1 164.51-0.13 162.89-0.15 160.89-0.15L160.89-0.15Q158.94-0.15 157.24-0.1 155.54-0.05 154.09 0L154.09 0 153.24-1.85 157.59-2.9Q157.74-6.15 157.81-10.05 157.89-13.95 157.89-17.9L157.89-17.9Q157.89-22.35 157.76-26.2 157.64-30.05 157.34-33.65L157.34-33.65 153.44-34.3 152.89-36.35Q155.39-36.4 158.44-36.65 161.49-36.9 164.74-37.25ZM173.14-21.75L173.14-21.75Q176.24-21.75 178.06-19.6 179.89-17.45 180.09-14.05L180.09-14.05Q180.19-13.15 180.14-11.23 180.09-9.3 180.06-7.05 180.04-4.8 180.04-2.9L180.04-2.9 183.74-1.85 182.99 0Q180.29-0.15 176.49-0.15L176.49-0.15Q174.59-0.15 173.04-0.1 171.49-0.05 170.19 0L170.19 0 169.49-1.85 173.14-2.9Q173.24-4.6 173.29-5.78 173.34-6.95 173.36-8.13 173.39-9.3 173.34-10.9L173.34-10.9Q173.29-14.4 172.11-15.7 170.94-17 168.59-17L168.59-17Q166.39-15.55 165.51-13.55 164.64-11.55 164.69-9.65L164.69-9.65 162.89-11.85Q163.24-14.7 164.66-16.95 166.09-19.2 168.29-20.48 170.49-21.75 173.14-21.75ZM195.48-21.75L195.48-21.75Q195.43-18.85 195.36-16.2 195.28-13.55 195.28-11.4L195.28-11.4Q195.28-9.55 195.36-7.15 195.43-4.75 195.48-2.9L195.48-2.9 199.48-1.85 198.63 0Q197.33-0.1 196.01-0.13 194.68-0.15 192.03-0.15L192.03-0.15Q189.58-0.15 188.21-0.1 186.83-0.05 185.28 0L185.28 0 184.48-1.85 188.73-2.9Q188.83-5.4 188.86-7.25 188.88-9.1 188.83-11.3L188.83-11.3Q188.83-12.45 188.81-13.35 188.78-14.25 188.73-15.38 188.68-16.5 188.53-18.25L188.53-18.25 184.98-18.9 184.23-20.8Q185.38-20.85 187.21-20.95 189.03-21.05 191.18-21.25 193.33-21.45 195.48-21.75ZM191.73-25.45L191.73-25.45Q190.13-25.45 188.98-26.65 187.83-27.85 187.83-29.6L187.83-29.6Q187.83-31.25 188.98-32.45 190.13-33.65 191.73-33.65L191.73-33.65Q193.33-33.65 194.48-32.45 195.63-31.25 195.63-29.6L195.63-29.6Q195.63-27.85 194.48-26.65 193.33-25.45 191.73-25.45ZM219.43-21.75L219.43-21.75Q222.28-21.75 224.11-19.6 225.93-17.45 226.13-14.05L226.13-14.05Q226.18-13.15 226.13-11.23 226.08-9.3 226.06-7.05 226.03-4.8 226.03-2.9L226.03-2.9 229.78-1.85 228.98 0Q227.68-0.1 226.03-0.13 224.38-0.15 222.78-0.15L222.78-0.15Q220.83-0.15 219.28-0.1 217.73-0.05 216.43 0L216.43 0 215.78-1.85 219.43-2.9Q219.48-4.6 219.53-5.78 219.58-6.95 219.61-8.13 219.63-9.3 219.58-10.9L219.58-10.9Q219.53-13.95 218.48-15.35 217.43-16.75 215.38-17.2L215.38-17.2Q213.18-15.75 212.18-13.65 211.18-11.55 211.23-9.65L211.23-9.65 209.38-11.85Q209.73-14.7 211.11-16.95 212.48-19.2 214.63-20.48 216.78-21.75 219.43-21.75ZM211.28-22L211.28-22Q211.28-20.35 211.28-19.33 211.28-18.3 211.26-17.28 211.23-16.25 211.13-14.55L211.13-14.55 211.33-2.9 214.98-1.85 214.33 0Q212.63-0.1 211.13-0.13 209.63-0.15 207.83-0.15L207.83-0.15Q205.88-0.15 204.46-0.1 203.03-0.05 201.58 0L201.58 0 200.78-1.85 204.53-2.9Q204.53-4.5 204.66-6.68 204.78-8.85 204.78-10.8L204.78-10.8Q204.78-12.25 204.76-13.23 204.73-14.2 204.63-15.28 204.53-16.35 204.33-18.1L204.33-18.1 200.43-19.05 199.83-20.95Q202.78-21.1 205.41-21.38 208.03-21.65 211.28-22ZM237.38-9.15L237.38-9.15 239.78-8.55Q238.63-6.55 238.63-5.55L238.63-5.55Q238.63-4.2 240.08-3.9 241.53-3.6 243.53-3.5L243.53-3.5Q245.08-3.4 246.73-3.18 248.38-2.95 249.8-2.27 251.23-1.6 252.1-0.18 252.98 1.25 252.98 3.75L252.98 3.75Q252.98 6.2 251.65 8.38 250.33 10.55 247.58 11.9 244.83 13.25 240.63 13.25L240.63 13.25Q237.43 13.25 235.28 12.3 233.13 11.35 232.03 9.8 230.93 8.25 230.93 6.5L230.93 6.5Q230.93 4.3 232.6 2.23 234.28 0.15 237.68-1L237.68-1 238.63-0.45Q237.63 0.75 237.15 1.95 236.68 3.15 236.68 4.3L236.68 4.3Q236.68 6.55 238.5 8.1 240.33 9.65 243.58 9.65L243.58 9.65Q245.68 9.65 247.33 8.68 248.98 7.7 248.98 5.5L248.98 5.5Q248.98 3.9 247.1 3.08 245.23 2.25 240.53 2.25L240.53 2.25Q237.28 2.25 235.18 1 233.08-0.25 233.08-3.15L233.08-3.15Q234.63-5.15 235.53-6.45 236.43-7.75 237.38-9.15ZM240.03-19.45L240.03-19.45Q239.03-18.75 238.65-17.3 238.28-15.85 238.28-14.65L238.28-14.65Q238.28-13.35 238.88-11.95 239.48-10.55 240.53-9.6 241.58-8.65 242.98-8.65L242.98-8.65Q243.83-9.05 244.35-10.4 244.88-11.75 244.88-13.45L244.88-13.45Q244.88-14.75 244.18-16.13 243.48-17.5 242.38-18.48 241.28-19.45 240.03-19.45ZM241.38-21.55L241.38-21.55Q244.83-21.55 246.95-20.48 249.08-19.4 250.08-17.68 251.08-15.95 251.08-14L251.08-14Q251.08-11.9 249.98-10.13 248.88-8.35 246.68-7.28 244.48-6.2 241.18-6.2L241.18-6.2Q238.28-6.2 236.2-7.23 234.13-8.25 233.03-9.95 231.93-11.65 231.93-13.7L231.93-13.7Q231.93-15.8 233-17.57 234.08-19.35 236.18-20.45 238.28-21.55 241.38-21.55ZM256.03-21.15L256.03-21.15Q256.03-19.9 255.98-18.43 255.93-16.95 255.93-16.25L255.93-16.25Q253.48-17.3 251.65-17.85 249.83-18.4 248.08-18.6L248.08-18.6 245.73-20.5Q247.33-20.7 249.43-20.85 251.53-21 253.35-21.08 255.18-21.15 256.03-21.15ZM293.52-21.05L293.52-21.05 294.27-19.15 290.42-18.2Q287.07-10.95 283.9-4.03 280.72 2.9 278.72 9.5L278.72 9.5 283.32 11.05 282.52 13Q281.32 12.9 279.57 12.85 277.82 12.8 276.02 12.8L276.02 12.8Q274.82 12.8 273.3 12.83 271.77 12.85 270.42 12.9 269.07 12.95 268.27 13L268.27 13 267.47 11 273.32 9.4Q274.72 7.4 276.45 4.2 278.17 1 279.97-2.83 281.77-6.65 283.35-10.63 284.92-14.6 286.02-18.2L286.02-18.2 282.12-19.15 282.82-21.05Q284.37-21 285.6-20.98 286.82-20.95 288.12-20.95L288.12-20.95Q289.47-20.95 290.82-20.98 292.17-21 293.52-21.05ZM279.17-21L279.17-21 280.07-19.1 276.47-18.1Q277.07-16.25 277.57-14.85 278.07-13.45 278.6-12.18 279.12-10.9 279.85-9.35 280.57-7.8 281.62-5.65L281.62-5.65Q281.72-5.15 281.37-3.98 281.02-2.8 280.45-1.53 279.87-0.25 279.25 0.65 278.62 1.55 278.22 1.55L278.22 1.55Q276.82-1.55 275.67-4 274.52-6.45 273.47-8.68 272.42-10.9 271.27-13.15 270.12-15.4 268.77-18.1L268.77-18.1 264.97-19.1 265.67-21Q267.17-20.95 268.7-20.9 270.22-20.85 272.17-20.85L272.17-20.85Q274.27-20.85 276.07-20.9 277.87-20.95 279.17-21ZM307.12-21.7L307.12-21.7Q310.82-21.7 313.3-20.15 315.77-18.6 317-16.1 318.22-13.6 318.22-10.7L318.22-10.7Q318.22-7.75 316.97-5.18 315.72-2.6 313.22-1.05 310.72 0.5 306.97 0.5L306.97 0.5Q303.22 0.5 300.67-1.07 298.12-2.65 296.82-5.25 295.52-7.85 295.52-10.8L295.52-10.8Q295.52-13.7 296.8-16.18 298.07-18.65 300.65-20.18 303.22-21.7 307.12-21.7ZM302.52-11.85L302.52-11.85Q302.52-9.35 303.1-7.1 303.67-4.85 304.82-3.45 305.97-2.05 307.57-2.05L307.57-2.05Q309.47-2.05 310.4-4.13 311.32-6.2 311.32-9.3L311.32-9.3Q311.32-11.8 310.75-14.03 310.17-16.25 309.05-17.68 307.92-19.1 306.27-19.1L306.27-19.1Q304.37-19.1 303.45-17.03 302.52-14.95 302.52-11.85ZM330.97 0.85L330.97 0.85Q327.82 0.85 326.04-1.3 324.27-3.45 324.02-7.55L324.02-7.55Q323.92-9.3 323.92-11.88 323.92-14.45 323.97-18.35L323.97-18.35 320.42-18.9 319.82-20.95Q322.72-20.95 325.54-21.15 328.37-21.35 330.82-21.7L330.82-21.7Q330.72-19.4 330.59-17.48 330.47-15.55 330.47-13.58 330.47-11.6 330.62-9L330.62-9Q330.77-6.1 331.97-5 333.17-3.9 334.32-3.9L334.32-3.9Q335.52-4.15 336.57-5.53 337.62-6.9 338.27-8.88 338.92-10.85 338.92-12.8L338.92-12.8 340.22-8.55Q339.92-6.1 338.67-3.95 337.42-1.8 335.44-0.48 333.47 0.85 330.97 0.85ZM339.32 0L339.32 0Q339.27-1.5 339.14-3.2 339.02-4.9 338.97-7.25L338.97-7.25 338.67-18.3 335.07-18.9 334.47-20.95Q337.42-20.95 340.17-21.15 342.92-21.35 345.42-21.7L345.42-21.7Q345.42-21.7 345.39-20.55 345.37-19.4 345.34-17.7 345.32-16 345.27-14.33 345.22-12.65 345.19-11.5 345.17-10.35 345.17-10.35L345.17-10.35Q345.22-8.65 345.34-7.13 345.47-5.6 345.67-2.9L345.67-2.9 349.42-1.85 348.47 0Q347.17-0.1 346.04-0.1 344.92-0.1 343.17-0.1L343.17-0.1Q342.42-0.1 341.22-0.05 340.02 0 339.32 0ZM372.86-30L380.36-30Q380.31-25.05 380.31-21.23 380.31-17.4 380.31-13.95L380.31-13.95Q380.31-11.4 380.31-8.85 380.31-6.3 380.36-3.2L380.36-3.2 385.66-1.9 385.01 0Q383.71-0.1 381.39-0.13 379.06-0.15 376.66-0.15L376.66-0.15Q374.36-0.15 372.04-0.1 369.71-0.05 368.16 0L368.16 0 367.46-1.9 372.86-3.2Q372.96-6.9 373.04-9.98 373.11-13.05 373.11-16.2L373.11-16.2Q373.11-19.15 373.04-22.53 372.96-25.9 372.86-30L372.86-30ZM391.76-33L391.76-33Q391.41-29.95 391.31-27.18 391.21-24.4 391.21-22.05L391.21-22.05 387.96-22.05 386.66-29.3Q385.81-29.4 384.76-29.43 383.71-29.45 382.66-29.45L382.66-29.45Q381.11-29.45 379.56-29.35 378.01-29.25 376.76-29L376.76-29Q375.46-29.25 373.81-29.33 372.16-29.4 370.51-29.4L370.51-29.4Q369.56-29.4 368.66-29.38 367.76-29.35 366.96-29.3L366.96-29.3 365.66-22.05 362.41-22.05Q362.36-24.4 362.21-27.1 362.06-29.8 361.76-33L361.76-33Q363.46-32.95 365.94-32.9 368.41-32.85 371.29-32.83 374.16-32.8 377.11-32.8L377.11-32.8Q380.11-32.8 382.91-32.83 385.71-32.85 388.01-32.9 390.31-32.95 391.76-33ZM406.36-21.7L406.36-21.7Q410.06-21.7 412.54-20.15 415.01-18.6 416.24-16.1 417.46-13.6 417.46-10.7L417.46-10.7Q417.46-7.75 416.21-5.18 414.96-2.6 412.46-1.05 409.96 0.5 406.21 0.5L406.21 0.5Q402.46 0.5 399.91-1.07 397.36-2.65 396.06-5.25 394.76-7.85 394.76-10.8L394.76-10.8Q394.76-13.7 396.04-16.18 397.31-18.65 399.89-20.18 402.46-21.7 406.36-21.7ZM401.76-11.85L401.76-11.85Q401.76-9.35 402.34-7.1 402.91-4.85 404.06-3.45 405.21-2.05 406.81-2.05L406.81-2.05Q408.71-2.05 409.64-4.13 410.56-6.2 410.56-9.3L410.56-9.3Q410.56-11.8 409.99-14.03 409.41-16.25 408.29-17.68 407.16-19.1 405.51-19.1L405.51-19.1Q403.61-19.1 402.69-17.03 401.76-14.95 401.76-11.85ZM442.01-37.35L442.01-37.35Q442.01-34.15 441.98-30.35 441.96-26.55 441.96-21.7L441.96-21.7Q441.96-17.65 441.96-13.88 441.96-10.1 441.98-7.23 442.01-4.35 442.06-2.9L442.06-2.9 445.81-1.85 445.06 0Q443.76-0.1 442.51-0.1 441.26-0.1 439.46-0.1L439.46-0.1Q438.11-0.1 437.21-0.08 436.31-0.05 435.61 0L435.61 0Q435.56-1 435.43-1.88 435.31-2.75 435.21-3.7L435.21-3.7Q435.26-5.95 435.28-8.2 435.31-10.45 435.31-12.55L435.31-12.55Q435.31-14 435.31-15.4 435.31-16.8 435.26-18.3L435.26-18.3Q435.26-20.6 435.18-23.3 435.11-26 434.98-28.7 434.86-31.4 434.66-33.6L434.66-33.6 430.61-34.25 430.16-36.4Q431.01-36.4 432.51-36.5 434.01-36.6 435.78-36.73 437.56-36.85 439.21-37.02 440.86-37.2 442.01-37.35ZM428.96-21.8L428.96-21.8Q431.71-21.8 433.81-20.35 435.91-18.9 436.86-16.25L436.86-16.25 435.31-12Q435.31-13.75 434.58-15.18 433.86-16.6 432.81-17.53 431.76-18.45 430.81-18.65L430.81-18.65Q428.81-18.05 427.68-15.9 426.56-13.75 426.56-10.95L426.56-10.95Q426.56-7.15 428.01-5.3 429.46-3.45 431.31-3.45L431.31-3.45Q433.06-3.45 434.63-5.35 436.21-7.25 436.81-10.35L436.81-10.35 438.36-8.1Q437.01-4.45 434.68-2.05 432.36 0.35 428.96 0.35L428.96 0.35Q426.71 0.35 424.58-0.93 422.46-2.2 421.11-4.73 419.76-7.25 419.76-11.05L419.76-11.05Q419.76-14.6 421.16-17 422.56-19.4 424.68-20.6 426.81-21.8 428.96-21.8ZM459.51-21.8L459.51-21.8Q462.16-21.8 464.11-20.18 466.06-18.55 466.06-15.25L466.06-15.25Q466.06-13.1 465.98-11.65 465.91-10.2 465.83-9.08 465.76-7.95 465.76-6.75L465.76-6.75Q465.76-5.35 465.93-4.78 466.11-4.2 466.91-4.2L466.91-4.2Q467.61-4.2 469.01-4.85L469.01-4.85 469.91-2.65Q468.11-1.4 466.46-0.58 464.81 0.25 462.96 0.25L462.96 0.25Q461.41 0.25 460.26-0.98 459.11-2.2 459.11-4.85L459.11-4.85Q459.11-7.3 459.33-9.68 459.56-12.05 459.56-13.9L459.56-13.9Q459.56-15.45 459.11-16.4 458.66-17.35 457.61-17.7L457.61-17.7Q455.31-17.6 453.21-16.85 451.11-16.1 448.91-14.95L448.91-14.95 447.61-17.1Q450.46-19.2 453.38-20.5 456.31-21.8 459.51-21.8ZM463.06-13.95L463.06-13.95 460.06-9.8Q458.96-9.55 458.11-9.3 457.26-9.05 456.56-8.9L456.56-8.9Q454.86-8.55 454.21-8.03 453.56-7.5 453.56-6.2L453.56-6.2Q453.56-5.15 454.11-4.55 454.66-3.95 455.61-3.95L455.61-3.95Q456.76-3.95 458.53-5.03 460.31-6.1 461.56-7.75L461.56-7.75 462.51-5.7Q461.71-4.7 460.23-3.25 458.76-1.8 456.71-0.68 454.66 0.45 452.21 0.45L452.21 0.45Q450.96 0.45 449.78-0.23 448.61-0.9 447.83-2.25 447.06-3.6 447.06-5.6L447.06-5.6Q447.06-7.7 448.33-8.88 449.61-10.05 451.81-10.7 454.01-11.35 456.66-11.8L456.66-11.8Q458.46-12.1 460.01-12.58 461.56-13.05 463.06-13.95ZM499.05-21.05L499.05-21.05 499.8-19.15 495.95-18.2Q492.6-10.95 489.43-4.03 486.25 2.9 484.25 9.5L484.25 9.5 488.85 11.05 488.05 13Q486.85 12.9 485.1 12.85 483.35 12.8 481.55 12.8L481.55 12.8Q480.35 12.8 478.83 12.83 477.3 12.85 475.95 12.9 474.6 12.95 473.8 13L473.8 13 473 11 478.85 9.4Q480.25 7.4 481.98 4.2 483.7 1 485.5-2.83 487.3-6.65 488.88-10.63 490.45-14.6 491.55-18.2L491.55-18.2 487.65-19.15 488.35-21.05Q489.9-21 491.13-20.98 492.35-20.95 493.65-20.95L493.65-20.95Q495-20.95 496.35-20.98 497.7-21 499.05-21.05ZM484.7-21L484.7-21 485.6-19.1 482-18.1Q482.6-16.25 483.1-14.85 483.6-13.45 484.13-12.18 484.65-10.9 485.38-9.35 486.1-7.8 487.15-5.65L487.15-5.65Q487.25-5.15 486.9-3.98 486.55-2.8 485.98-1.53 485.4-0.25 484.78 0.65 484.15 1.55 483.75 1.55L483.75 1.55Q482.35-1.55 481.2-4 480.05-6.45 479-8.68 477.95-10.9 476.8-13.15 475.65-15.4 474.3-18.1L474.3-18.1 470.5-19.1 471.2-21Q472.7-20.95 474.23-20.9 475.75-20.85 477.7-20.85L477.7-20.85Q479.8-20.85 481.6-20.9 483.4-20.95 484.7-21Z" opacity="1" transform="matrix(1,0,0,1,0,0)" fill="black" class="wordmark-text-0" id="SvgjsPath1519" stroke-width="10" stroke="black" stroke-linejoin="round"></path></svg></g></svg></g></svg></g></svg></g></svg></g></svg></g></svg></g></mask><g transform="matrix(1,0,0,1,15.911724137931031,101.94331233714969)"><svg viewBox="0 0 363.6965517241379 43.31337532570061" height="43.31337532570061" width="363.6965517241379"><g><svg viewBox="0 0 363.6965517241379 43.31337532570061" height="43.31337532570061" width="363.6965517241379"><g><svg viewBox="0 0 363.6965517241379 43.31337532570061" height="43.31337532570061" width="363.6965517241379"><g><svg viewBox="0 0 363.6965517241379 43.31337532570061" height="43.31337532570061" width="363.6965517241379"><g id="textblocktransform"><svg viewBox="0 0 363.6965517241379 43.31337532570061" height="43.31337532570061" width="363.6965517241379" id="textblock"><g><svg viewBox="0 0 363.6965517241379 43.31337532570061" height="43.31337532570061" width="363.6965517241379"><g transform="matrix(1,0,0,1,0,0)"><svg width="363.6965517241379" viewBox="-4.5 -42.85 509.8 61.6" height="43.31337532570061" data-palette-color="#2ecc40"><path d="M13.3-33L13.3-33Q16-28.85 18.85-25.13 21.7-21.4 24.68-17.7 27.65-14 30.75-9.95L30.75-9.95 29.95 0.5 29.45 0.5Q26.35-4 23.68-7.55 21-11.1 18.55-14.13 16.1-17.15 13.7-20.13 11.3-23.1 8.75-26.5L8.75-26.5Q9-28.35 9.83-29.6 10.65-30.85 11.65-31.65 12.65-32.45 13.3-33ZM13.3-33L13.3-33 9.95-28.4Q9.95-27.3 9.95-24.43 9.95-21.55 9.95-17.95L9.95-17.95Q9.95-14.85 10.1-11.35 10.25-7.85 10.6-2.95L10.6-2.95 15.65-1.9 14.95 0Q13.6-0.1 11.7-0.13 9.8-0.15 8.15-0.15L8.15-0.15Q6.65-0.15 4.93-0.1 3.2-0.05 1.65 0L1.65 0 1-1.9 6.05-2.95Q6.3-7 6.43-10.73 6.55-14.45 6.55-18.05L6.55-18.05Q6.55-21 6.48-23.88 6.4-26.75 6.3-29.7L6.3-29.7 1.1-31.05 1.7-33Q4.8-32.85 7.8-32.85L7.8-32.85Q9-32.85 10.68-32.9 12.35-32.95 13.3-33ZM37-33L37-33 37.7-31.05 33.3-30Q33-24.7 32.88-20.2 32.75-15.7 32.75-11.25L32.75-11.25Q32.75-8.45 32.8-5.58 32.85-2.7 32.9 0.5L32.9 0.5 29.75 0.5 29.15-1.65Q29.3-4.2 29.38-6.38 29.45-8.55 29.45-11.15L29.45-11.15Q29.45-15.3 29.28-20.08 29.1-24.85 28.7-30L28.7-30 24.35-31.05 24.95-33Q26.5-32.95 27.9-32.88 29.3-32.8 30.85-32.8L30.85-32.8Q32.45-32.8 34.05-32.85 35.65-32.9 37-33ZM51.55-21.7L51.55-21.7Q55.25-21.7 57.72-20.15 60.2-18.6 61.42-16.1 62.65-13.6 62.65-10.7L62.65-10.7Q62.65-7.75 61.4-5.18 60.15-2.6 57.65-1.05 55.15 0.5 51.4 0.5L51.4 0.5Q47.65 0.5 45.1-1.07 42.55-2.65 41.25-5.25 39.95-7.85 39.95-10.8L39.95-10.8Q39.95-13.7 41.22-16.18 42.5-18.65 45.07-20.18 47.65-21.7 51.55-21.7ZM46.95-11.85L46.95-11.85Q46.95-9.35 47.52-7.1 48.1-4.85 49.25-3.45 50.4-2.05 52-2.05L52-2.05Q53.9-2.05 54.82-4.13 55.75-6.2 55.75-9.3L55.75-9.3Q55.75-11.8 55.17-14.03 54.6-16.25 53.47-17.68 52.35-19.1 50.7-19.1L50.7-19.1Q48.8-19.1 47.87-17.03 46.95-14.95 46.95-11.85ZM75.4 0.85L75.4 0.85Q72.25 0.85 70.47-1.3 68.7-3.45 68.45-7.55L68.45-7.55Q68.35-9.3 68.35-11.88 68.35-14.45 68.4-18.35L68.4-18.35 64.85-18.9 64.25-20.95Q67.15-20.95 69.97-21.15 72.8-21.35 75.25-21.7L75.25-21.7Q75.15-19.4 75.02-17.48 74.9-15.55 74.9-13.58 74.9-11.6 75.05-9L75.05-9Q75.2-6.1 76.4-5 77.6-3.9 78.75-3.9L78.75-3.9Q79.95-4.15 81-5.53 82.05-6.9 82.7-8.88 83.35-10.85 83.35-12.8L83.35-12.8 84.65-8.55Q84.35-6.1 83.1-3.95 81.85-1.8 79.87-0.48 77.9 0.85 75.4 0.85ZM83.75 0L83.75 0Q83.7-1.5 83.57-3.2 83.45-4.9 83.4-7.25L83.4-7.25 83.1-18.3 79.5-18.9 78.9-20.95Q81.85-20.95 84.6-21.15 87.35-21.35 89.85-21.7L89.85-21.7Q89.85-21.7 89.82-20.55 89.8-19.4 89.77-17.7 89.75-16 89.7-14.33 89.65-12.65 89.62-11.5 89.6-10.35 89.6-10.35L89.6-10.35Q89.65-8.65 89.77-7.13 89.9-5.6 90.1-2.9L90.1-2.9 93.85-1.85 92.9 0Q91.6-0.1 90.47-0.1 89.35-0.1 87.6-0.1L87.6-0.1Q86.85-0.1 85.65-0.05 84.45 0 83.75 0ZM105.84-21.7L105.84-21.7Q105.89-20.55 105.99-19 106.09-17.45 106.19-16.18 106.29-14.9 106.29-14.45L106.29-14.45 106.64-3.1 111.59-1.85 110.84 0Q109.99-0.05 108.59-0.08 107.19-0.1 105.69-0.13 104.19-0.15 102.99-0.15L102.99-0.15Q101.44-0.15 99.64-0.1 97.84-0.05 96.34 0L96.34 0 95.59-1.85 99.64-2.9Q99.64-5.15 99.64-6.93 99.64-8.7 99.64-10.8L99.64-10.8Q99.64-11.95 99.62-12.93 99.59-13.9 99.54-15.13 99.49-16.35 99.34-18.15L99.34-18.15 95.94-18.7 95.24-20.8Q96.39-20.85 98.32-20.95 100.24-21.05 102.29-21.25 104.34-21.45 105.84-21.7ZM112.54-21.8L112.54-21.8Q113.94-21.8 115.14-21.28 116.34-20.75 117.44-19.6L117.44-19.6Q117.14-18.1 116.89-17 116.64-15.9 116.32-14.83 115.99-13.75 115.54-12.2L115.54-12.2 112.74-12.2Q112.39-14.05 111.72-15.43 111.04-16.8 109.89-17.3L109.89-17.3Q108.64-16.5 107.52-14.33 106.39-12.15 106.39-8.55L106.39-8.55 104.44-11.45Q104.84-14.25 105.99-16.6 107.14-18.95 108.82-20.38 110.49-21.8 112.54-21.8ZM130.04-21.75L130.04-21.75Q129.99-18.85 129.92-16.2 129.84-13.55 129.84-11.4L129.84-11.4Q129.84-9.55 129.92-7.15 129.99-4.75 130.04-2.9L130.04-2.9 134.04-1.85 133.19 0Q131.89-0.1 130.57-0.13 129.24-0.15 126.59-0.15L126.59-0.15Q124.14-0.15 122.77-0.1 121.39-0.05 119.84 0L119.84 0 119.04-1.85 123.29-2.9Q123.39-5.4 123.42-7.25 123.44-9.1 123.39-11.3L123.39-11.3Q123.39-12.45 123.37-13.35 123.34-14.25 123.29-15.38 123.24-16.5 123.09-18.25L123.09-18.25 119.54-18.9 118.79-20.8Q119.94-20.85 121.77-20.95 123.59-21.05 125.74-21.25 127.89-21.45 130.04-21.75ZM126.29-25.45L126.29-25.45Q124.69-25.45 123.54-26.65 122.39-27.85 122.39-29.6L122.39-29.6Q122.39-31.25 123.54-32.45 124.69-33.65 126.29-33.65L126.29-33.65Q127.89-33.65 129.04-32.45 130.19-31.25 130.19-29.6L130.19-29.6Q130.19-27.85 129.04-26.65 127.89-25.45 126.29-25.45ZM135.09-1.3L135.09-1.3Q135.49-3.2 135.76-4.48 136.04-5.75 136.24-7.25L136.24-7.25 138.74-7.25 139.54-3.35Q140.19-2.8 141.09-2.5 141.99-2.2 142.89-2.2L142.89-2.2Q144.14-2.2 145.11-2.8 146.09-3.4 146.09-4.65L146.09-4.65Q146.09-5.7 145.31-6.38 144.54-7.05 143.34-7.58 142.14-8.1 140.79-8.63 139.44-9.15 138.24-9.95 137.04-10.75 136.26-11.95 135.49-13.15 135.49-15L135.49-15Q135.49-17.55 136.74-19.03 137.99-20.5 140.01-21.15 142.04-21.8 144.29-21.8L144.29-21.8Q146.04-21.8 147.94-21.4 149.84-21 151.39-20.25L151.39-20.25Q150.99-18.5 150.66-17.15 150.34-15.8 150.09-14.5L150.09-14.5 147.49-14.55 146.84-17.95Q145.94-19.15 143.89-19.15L143.89-19.15Q142.79-19.15 141.86-18.65 140.94-18.15 140.94-17L140.94-17Q140.94-15.9 141.74-15.23 142.54-14.55 143.81-14.05 145.09-13.55 146.54-12.98 147.99-12.4 149.26-11.55 150.54-10.7 151.34-9.38 152.14-8.05 152.14-6L152.14-6Q152.14-3.6 150.84-2.18 149.54-0.75 147.39-0.13 145.24 0.5 142.74 0.5L142.74 0.5Q140.84 0.5 138.89 0.1 136.94-0.3 135.09-1.3ZM164.74-37.25L164.74-37.25Q164.74-32.2 164.74-27.75 164.74-23.3 164.71-19.9 164.69-16.5 164.64-14.55L164.64-14.55 164.79-2.9 168.49-1.85 167.79 0Q166.14-0.1 164.51-0.13 162.89-0.15 160.89-0.15L160.89-0.15Q158.94-0.15 157.24-0.1 155.54-0.05 154.09 0L154.09 0 153.24-1.85 157.59-2.9Q157.74-6.15 157.81-10.05 157.89-13.95 157.89-17.9L157.89-17.9Q157.89-22.35 157.76-26.2 157.64-30.05 157.34-33.65L157.34-33.65 153.44-34.3 152.89-36.35Q155.39-36.4 158.44-36.65 161.49-36.9 164.74-37.25ZM173.14-21.75L173.14-21.75Q176.24-21.75 178.06-19.6 179.89-17.45 180.09-14.05L180.09-14.05Q180.19-13.15 180.14-11.23 180.09-9.3 180.06-7.05 180.04-4.8 180.04-2.9L180.04-2.9 183.74-1.85 182.99 0Q180.29-0.15 176.49-0.15L176.49-0.15Q174.59-0.15 173.04-0.1 171.49-0.05 170.19 0L170.19 0 169.49-1.85 173.14-2.9Q173.24-4.6 173.29-5.78 173.34-6.95 173.36-8.13 173.39-9.3 173.34-10.9L173.34-10.9Q173.29-14.4 172.11-15.7 170.94-17 168.59-17L168.59-17Q166.39-15.55 165.51-13.55 164.64-11.55 164.69-9.65L164.69-9.65 162.89-11.85Q163.24-14.7 164.66-16.95 166.09-19.2 168.29-20.48 170.49-21.75 173.14-21.75ZM195.48-21.75L195.48-21.75Q195.43-18.85 195.36-16.2 195.28-13.55 195.28-11.4L195.28-11.4Q195.28-9.55 195.36-7.15 195.43-4.75 195.48-2.9L195.48-2.9 199.48-1.85 198.63 0Q197.33-0.1 196.01-0.13 194.68-0.15 192.03-0.15L192.03-0.15Q189.58-0.15 188.21-0.1 186.83-0.05 185.28 0L185.28 0 184.48-1.85 188.73-2.9Q188.83-5.4 188.86-7.25 188.88-9.1 188.83-11.3L188.83-11.3Q188.83-12.45 188.81-13.35 188.78-14.25 188.73-15.38 188.68-16.5 188.53-18.25L188.53-18.25 184.98-18.9 184.23-20.8Q185.38-20.85 187.21-20.95 189.03-21.05 191.18-21.25 193.33-21.45 195.48-21.75ZM191.73-25.45L191.73-25.45Q190.13-25.45 188.98-26.65 187.83-27.85 187.83-29.6L187.83-29.6Q187.83-31.25 188.98-32.45 190.13-33.65 191.73-33.65L191.73-33.65Q193.33-33.65 194.48-32.45 195.63-31.25 195.63-29.6L195.63-29.6Q195.63-27.85 194.48-26.65 193.33-25.45 191.73-25.45ZM219.43-21.75L219.43-21.75Q222.28-21.75 224.11-19.6 225.93-17.45 226.13-14.05L226.13-14.05Q226.18-13.15 226.13-11.23 226.08-9.3 226.06-7.05 226.03-4.8 226.03-2.9L226.03-2.9 229.78-1.85 228.98 0Q227.68-0.1 226.03-0.13 224.38-0.15 222.78-0.15L222.78-0.15Q220.83-0.15 219.28-0.1 217.73-0.05 216.43 0L216.43 0 215.78-1.85 219.43-2.9Q219.48-4.6 219.53-5.78 219.58-6.95 219.61-8.13 219.63-9.3 219.58-10.9L219.58-10.9Q219.53-13.95 218.48-15.35 217.43-16.75 215.38-17.2L215.38-17.2Q213.18-15.75 212.18-13.65 211.18-11.55 211.23-9.65L211.23-9.65 209.38-11.85Q209.73-14.7 211.11-16.95 212.48-19.2 214.63-20.48 216.78-21.75 219.43-21.75ZM211.28-22L211.28-22Q211.28-20.35 211.28-19.33 211.28-18.3 211.26-17.28 211.23-16.25 211.13-14.55L211.13-14.55 211.33-2.9 214.98-1.85 214.33 0Q212.63-0.1 211.13-0.13 209.63-0.15 207.83-0.15L207.83-0.15Q205.88-0.15 204.46-0.1 203.03-0.05 201.58 0L201.58 0 200.78-1.85 204.53-2.9Q204.53-4.5 204.66-6.68 204.78-8.85 204.78-10.8L204.78-10.8Q204.78-12.25 204.76-13.23 204.73-14.2 204.63-15.28 204.53-16.35 204.33-18.1L204.33-18.1 200.43-19.05 199.83-20.95Q202.78-21.1 205.41-21.38 208.03-21.65 211.28-22ZM237.38-9.15L237.38-9.15 239.78-8.55Q238.63-6.55 238.63-5.55L238.63-5.55Q238.63-4.2 240.08-3.9 241.53-3.6 243.53-3.5L243.53-3.5Q245.08-3.4 246.73-3.18 248.38-2.95 249.8-2.27 251.23-1.6 252.1-0.18 252.98 1.25 252.98 3.75L252.98 3.75Q252.98 6.2 251.65 8.38 250.33 10.55 247.58 11.9 244.83 13.25 240.63 13.25L240.63 13.25Q237.43 13.25 235.28 12.3 233.13 11.35 232.03 9.8 230.93 8.25 230.93 6.5L230.93 6.5Q230.93 4.3 232.6 2.23 234.28 0.15 237.68-1L237.68-1 238.63-0.45Q237.63 0.75 237.15 1.95 236.68 3.15 236.68 4.3L236.68 4.3Q236.68 6.55 238.5 8.1 240.33 9.65 243.58 9.65L243.58 9.65Q245.68 9.65 247.33 8.68 248.98 7.7 248.98 5.5L248.98 5.5Q248.98 3.9 247.1 3.08 245.23 2.25 240.53 2.25L240.53 2.25Q237.28 2.25 235.18 1 233.08-0.25 233.08-3.15L233.08-3.15Q234.63-5.15 235.53-6.45 236.43-7.75 237.38-9.15ZM240.03-19.45L240.03-19.45Q239.03-18.75 238.65-17.3 238.28-15.85 238.28-14.65L238.28-14.65Q238.28-13.35 238.88-11.95 239.48-10.55 240.53-9.6 241.58-8.65 242.98-8.65L242.98-8.65Q243.83-9.05 244.35-10.4 244.88-11.75 244.88-13.45L244.88-13.45Q244.88-14.75 244.18-16.13 243.48-17.5 242.38-18.48 241.28-19.45 240.03-19.45ZM241.38-21.55L241.38-21.55Q244.83-21.55 246.95-20.48 249.08-19.4 250.08-17.68 251.08-15.95 251.08-14L251.08-14Q251.08-11.9 249.98-10.13 248.88-8.35 246.68-7.28 244.48-6.2 241.18-6.2L241.18-6.2Q238.28-6.2 236.2-7.23 234.13-8.25 233.03-9.95 231.93-11.65 231.93-13.7L231.93-13.7Q231.93-15.8 233-17.57 234.08-19.35 236.18-20.45 238.28-21.55 241.38-21.55ZM256.03-21.15L256.03-21.15Q256.03-19.9 255.98-18.43 255.93-16.95 255.93-16.25L255.93-16.25Q253.48-17.3 251.65-17.85 249.83-18.4 248.08-18.6L248.08-18.6 245.73-20.5Q247.33-20.7 249.43-20.85 251.53-21 253.35-21.08 255.18-21.15 256.03-21.15ZM293.52-21.05L293.52-21.05 294.27-19.15 290.42-18.2Q287.07-10.95 283.9-4.03 280.72 2.9 278.72 9.5L278.72 9.5 283.32 11.05 282.52 13Q281.32 12.9 279.57 12.85 277.82 12.8 276.02 12.8L276.02 12.8Q274.82 12.8 273.3 12.83 271.77 12.85 270.42 12.9 269.07 12.95 268.27 13L268.27 13 267.47 11 273.32 9.4Q274.72 7.4 276.45 4.2 278.17 1 279.97-2.83 281.77-6.65 283.35-10.63 284.92-14.6 286.02-18.2L286.02-18.2 282.12-19.15 282.82-21.05Q284.37-21 285.6-20.98 286.82-20.95 288.12-20.95L288.12-20.95Q289.47-20.95 290.82-20.98 292.17-21 293.52-21.05ZM279.17-21L279.17-21 280.07-19.1 276.47-18.1Q277.07-16.25 277.57-14.85 278.07-13.45 278.6-12.18 279.12-10.9 279.85-9.35 280.57-7.8 281.62-5.65L281.62-5.65Q281.72-5.15 281.37-3.98 281.02-2.8 280.45-1.53 279.87-0.25 279.25 0.65 278.62 1.55 278.22 1.55L278.22 1.55Q276.82-1.55 275.67-4 274.52-6.45 273.47-8.68 272.42-10.9 271.27-13.15 270.12-15.4 268.77-18.1L268.77-18.1 264.97-19.1 265.67-21Q267.17-20.95 268.7-20.9 270.22-20.85 272.17-20.85L272.17-20.85Q274.27-20.85 276.07-20.9 277.87-20.95 279.17-21ZM307.12-21.7L307.12-21.7Q310.82-21.7 313.3-20.15 315.77-18.6 317-16.1 318.22-13.6 318.22-10.7L318.22-10.7Q318.22-7.75 316.97-5.18 315.72-2.6 313.22-1.05 310.72 0.5 306.97 0.5L306.97 0.5Q303.22 0.5 300.67-1.07 298.12-2.65 296.82-5.25 295.52-7.85 295.52-10.8L295.52-10.8Q295.52-13.7 296.8-16.18 298.07-18.65 300.65-20.18 303.22-21.7 307.12-21.7ZM302.52-11.85L302.52-11.85Q302.52-9.35 303.1-7.1 303.67-4.85 304.82-3.45 305.97-2.05 307.57-2.05L307.57-2.05Q309.47-2.05 310.4-4.13 311.32-6.2 311.32-9.3L311.32-9.3Q311.32-11.8 310.75-14.03 310.17-16.25 309.05-17.68 307.92-19.1 306.27-19.1L306.27-19.1Q304.37-19.1 303.45-17.03 302.52-14.95 302.52-11.85ZM330.97 0.85L330.97 0.85Q327.82 0.85 326.04-1.3 324.27-3.45 324.02-7.55L324.02-7.55Q323.92-9.3 323.92-11.88 323.92-14.45 323.97-18.35L323.97-18.35 320.42-18.9 319.82-20.95Q322.72-20.95 325.54-21.15 328.37-21.35 330.82-21.7L330.82-21.7Q330.72-19.4 330.59-17.48 330.47-15.55 330.47-13.58 330.47-11.6 330.62-9L330.62-9Q330.77-6.1 331.97-5 333.17-3.9 334.32-3.9L334.32-3.9Q335.52-4.15 336.57-5.53 337.62-6.9 338.27-8.88 338.92-10.85 338.92-12.8L338.92-12.8 340.22-8.55Q339.92-6.1 338.67-3.95 337.42-1.8 335.44-0.48 333.47 0.85 330.97 0.85ZM339.32 0L339.32 0Q339.27-1.5 339.14-3.2 339.02-4.9 338.97-7.25L338.97-7.25 338.67-18.3 335.07-18.9 334.47-20.95Q337.42-20.95 340.17-21.15 342.92-21.35 345.42-21.7L345.42-21.7Q345.42-21.7 345.39-20.55 345.37-19.4 345.34-17.7 345.32-16 345.27-14.33 345.22-12.65 345.19-11.5 345.17-10.35 345.17-10.35L345.17-10.35Q345.22-8.65 345.34-7.13 345.47-5.6 345.67-2.9L345.67-2.9 349.42-1.85 348.47 0Q347.17-0.1 346.04-0.1 344.92-0.1 343.17-0.1L343.17-0.1Q342.42-0.1 341.22-0.05 340.02 0 339.32 0ZM372.86-30L380.36-30Q380.31-25.05 380.31-21.23 380.31-17.4 380.31-13.95L380.31-13.95Q380.31-11.4 380.31-8.85 380.31-6.3 380.36-3.2L380.36-3.2 385.66-1.9 385.01 0Q383.71-0.1 381.39-0.13 379.06-0.15 376.66-0.15L376.66-0.15Q374.36-0.15 372.04-0.1 369.71-0.05 368.16 0L368.16 0 367.46-1.9 372.86-3.2Q372.96-6.9 373.04-9.98 373.11-13.05 373.11-16.2L373.11-16.2Q373.11-19.15 373.04-22.53 372.96-25.9 372.86-30L372.86-30ZM391.76-33L391.76-33Q391.41-29.95 391.31-27.18 391.21-24.4 391.21-22.05L391.21-22.05 387.96-22.05 386.66-29.3Q385.81-29.4 384.76-29.43 383.71-29.45 382.66-29.45L382.66-29.45Q381.11-29.45 379.56-29.35 378.01-29.25 376.76-29L376.76-29Q375.46-29.25 373.81-29.33 372.16-29.4 370.51-29.4L370.51-29.4Q369.56-29.4 368.66-29.38 367.76-29.35 366.96-29.3L366.96-29.3 365.66-22.05 362.41-22.05Q362.36-24.4 362.21-27.1 362.06-29.8 361.76-33L361.76-33Q363.46-32.95 365.94-32.9 368.41-32.85 371.29-32.83 374.16-32.8 377.11-32.8L377.11-32.8Q380.11-32.8 382.91-32.83 385.71-32.85 388.01-32.9 390.31-32.95 391.76-33ZM406.36-21.7L406.36-21.7Q410.06-21.7 412.54-20.15 415.01-18.6 416.24-16.1 417.46-13.6 417.46-10.7L417.46-10.7Q417.46-7.75 416.21-5.18 414.96-2.6 412.46-1.05 409.96 0.5 406.21 0.5L406.21 0.5Q402.46 0.5 399.91-1.07 397.36-2.65 396.06-5.25 394.76-7.85 394.76-10.8L394.76-10.8Q394.76-13.7 396.04-16.18 397.31-18.65 399.89-20.18 402.46-21.7 406.36-21.7ZM401.76-11.85L401.76-11.85Q401.76-9.35 402.34-7.1 402.91-4.85 404.06-3.45 405.21-2.05 406.81-2.05L406.81-2.05Q408.71-2.05 409.64-4.13 410.56-6.2 410.56-9.3L410.56-9.3Q410.56-11.8 409.99-14.03 409.41-16.25 408.29-17.68 407.16-19.1 405.51-19.1L405.51-19.1Q403.61-19.1 402.69-17.03 401.76-14.95 401.76-11.85ZM442.01-37.35L442.01-37.35Q442.01-34.15 441.98-30.35 441.96-26.55 441.96-21.7L441.96-21.7Q441.96-17.65 441.96-13.88 441.96-10.1 441.98-7.23 442.01-4.35 442.06-2.9L442.06-2.9 445.81-1.85 445.06 0Q443.76-0.1 442.51-0.1 441.26-0.1 439.46-0.1L439.46-0.1Q438.11-0.1 437.21-0.08 436.31-0.05 435.61 0L435.61 0Q435.56-1 435.43-1.88 435.31-2.75 435.21-3.7L435.21-3.7Q435.26-5.95 435.28-8.2 435.31-10.45 435.31-12.55L435.31-12.55Q435.31-14 435.31-15.4 435.31-16.8 435.26-18.3L435.26-18.3Q435.26-20.6 435.18-23.3 435.11-26 434.98-28.7 434.86-31.4 434.66-33.6L434.66-33.6 430.61-34.25 430.16-36.4Q431.01-36.4 432.51-36.5 434.01-36.6 435.78-36.73 437.56-36.85 439.21-37.02 440.86-37.2 442.01-37.35ZM428.96-21.8L428.96-21.8Q431.71-21.8 433.81-20.35 435.91-18.9 436.86-16.25L436.86-16.25 435.31-12Q435.31-13.75 434.58-15.18 433.86-16.6 432.81-17.53 431.76-18.45 430.81-18.65L430.81-18.65Q428.81-18.05 427.68-15.9 426.56-13.75 426.56-10.95L426.56-10.95Q426.56-7.15 428.01-5.3 429.46-3.45 431.31-3.45L431.31-3.45Q433.06-3.45 434.63-5.35 436.21-7.25 436.81-10.35L436.81-10.35 438.36-8.1Q437.01-4.45 434.68-2.05 432.36 0.35 428.96 0.35L428.96 0.35Q426.71 0.35 424.58-0.93 422.46-2.2 421.11-4.73 419.76-7.25 419.76-11.05L419.76-11.05Q419.76-14.6 421.16-17 422.56-19.4 424.68-20.6 426.81-21.8 428.96-21.8ZM459.51-21.8L459.51-21.8Q462.16-21.8 464.11-20.18 466.06-18.55 466.06-15.25L466.06-15.25Q466.06-13.1 465.98-11.65 465.91-10.2 465.83-9.08 465.76-7.95 465.76-6.75L465.76-6.75Q465.76-5.35 465.93-4.78 466.11-4.2 466.91-4.2L466.91-4.2Q467.61-4.2 469.01-4.85L469.01-4.85 469.91-2.65Q468.11-1.4 466.46-0.58 464.81 0.25 462.96 0.25L462.96 0.25Q461.41 0.25 460.26-0.98 459.11-2.2 459.11-4.85L459.11-4.85Q459.11-7.3 459.33-9.68 459.56-12.05 459.56-13.9L459.56-13.9Q459.56-15.45 459.11-16.4 458.66-17.35 457.61-17.7L457.61-17.7Q455.31-17.6 453.21-16.85 451.11-16.1 448.91-14.95L448.91-14.95 447.61-17.1Q450.46-19.2 453.38-20.5 456.31-21.8 459.51-21.8ZM463.06-13.95L463.06-13.95 460.06-9.8Q458.96-9.55 458.11-9.3 457.26-9.05 456.56-8.9L456.56-8.9Q454.86-8.55 454.21-8.03 453.56-7.5 453.56-6.2L453.56-6.2Q453.56-5.15 454.11-4.55 454.66-3.95 455.61-3.95L455.61-3.95Q456.76-3.95 458.53-5.03 460.31-6.1 461.56-7.75L461.56-7.75 462.51-5.7Q461.71-4.7 460.23-3.25 458.76-1.8 456.71-0.68 454.66 0.45 452.21 0.45L452.21 0.45Q450.96 0.45 449.78-0.23 448.61-0.9 447.83-2.25 447.06-3.6 447.06-5.6L447.06-5.6Q447.06-7.7 448.33-8.88 449.61-10.05 451.81-10.7 454.01-11.35 456.66-11.8L456.66-11.8Q458.46-12.1 460.01-12.58 461.56-13.05 463.06-13.95ZM499.05-21.05L499.05-21.05 499.8-19.15 495.95-18.2Q492.6-10.95 489.43-4.03 486.25 2.9 484.25 9.5L484.25 9.5 488.85 11.05 488.05 13Q486.85 12.9 485.1 12.85 483.35 12.8 481.55 12.8L481.55 12.8Q480.35 12.8 478.83 12.83 477.3 12.85 475.95 12.9 474.6 12.95 473.8 13L473.8 13 473 11 478.85 9.4Q480.25 7.4 481.98 4.2 483.7 1 485.5-2.83 487.3-6.65 488.88-10.63 490.45-14.6 491.55-18.2L491.55-18.2 487.65-19.15 488.35-21.05Q489.9-21 491.13-20.98 492.35-20.95 493.65-20.95L493.65-20.95Q495-20.95 496.35-20.98 497.7-21 499.05-21.05ZM484.7-21L484.7-21 485.6-19.1 482-18.1Q482.6-16.25 483.1-14.85 483.6-13.45 484.13-12.18 484.65-10.9 485.38-9.35 486.1-7.8 487.15-5.65L487.15-5.65Q487.25-5.15 486.9-3.98 486.55-2.8 485.98-1.53 485.4-0.25 484.78 0.65 484.15 1.55 483.75 1.55L483.75 1.55Q482.35-1.55 481.2-4 480.05-6.45 479-8.68 477.95-10.9 476.8-13.15 475.65-15.4 474.3-18.1L474.3-18.1 470.5-19.1 471.2-21Q472.7-20.95 474.23-20.9 475.75-20.85 477.7-20.85L477.7-20.85Q479.8-20.85 481.6-20.9 483.4-20.95 484.7-21Z" opacity="1" transform="matrix(1,0,0,1,0,0)" fill="#2ecc40" class="wordmark-text-0" data-fill-palette-color="primary" id="text-0"></path></svg></g></svg></g></svg></g></svg></g></svg></g></svg></g></svg></g><g mask="url(#ad91a903-7837-4fd9-a4d2-1fa394cf87cc)"><g transform="matrix(2.4519776149565065, 0, 0, 2.4519776149565065, 76.17471840685937, 1)"><svg version="1.1" xmlns="http://www.w3.org/2000/svg" xmlns:xlink="http://www.w3.org/1999/xlink" x="0" y="0" viewBox="0.6453668753334837 0 99.17323947127251 100.00091293833015" enable-background="new 0.646 0 99.173 100" xml:space="preserve" width="99.17323947127251" height="100.00091293833015" class="icon-none" data-fill-palette-color="accent" id="none"><g fill="#ff851b" data-fill-palette-color="accent"><path d="M95.384 78.016c-0.764 0.138-2.339 0.403-3.296 0-1.593-0.671-3.627-1.332-5.658-2.93-3.614-2.843-9.387-9.404-10.673-11.917-1.36-2.663-1.271-15.061-1.684-18.777-0.624-5.592 0.193-6.972-3.965-9.26-4.292-2.364-11.892-2.822-13.438-4.72-1.549-1.897-0.898-4.448-0.898-4.448 3.195-3.262 4.593-7.714 4.593-12.308 0-4.593-3.793-8.964-10.186-8.964-6.392 0-10.13 4.371-10.13 8.964 0 4.594 1.424 9.045 4.619 12.308 0 0 0.664 2.552-0.884 4.448-1.548 1.897-9.139 2.356-13.435 4.72-4.157 2.288-3.336 3.668-3.959 9.26-0.414 3.715-0.322 16.114-1.684 18.777-1.286 2.513-7.056 9.074-10.671 11.917-2.03 1.598-4.066 2.259-5.66 2.93-0.955 0.403-2.53 0.138-3.294 0-2.597-0.465-6.051-0.099-3.595 2.724 2.958 3.403 5.327 2.269 5.327 2.269s-3.729 4.595 1.663 10.587c5.393 5.991 8.9 6.923 16.223 6.191 7.324-0.732 25.477-3.196 25.477-3.196s18.208 2.464 25.533 3.196c7.323 0.732 10.884-0.2 16.278-6.191 5.393-5.992 1.662-10.587 1.662-10.587s2.369 1.135 5.327-2.269C101.436 77.917 97.98 77.551 95.384 78.016zM36.572 68.896c-0.233 3.348-2.863 11.228-4.318 11.804-3.139 1.245-15.812 0.093-15.904 0 8.231-3.86 15.164-13.004 16.094-14.399 0.93-1.396 3.196-20.772 3.196-20.772S36.805 65.547 36.572 68.896zM68.211 80.699c-1.453-0.576-4.084-8.456-4.316-11.804-0.232-3.349 0.931-23.369 0.931-23.369s2.266 19.376 3.196 20.772c0.93 1.395 7.865 10.54 16.095 14.4C84.022 80.792 71.35 81.944 68.211 80.699z" fill="#ff851b" data-fill-palette-color="accent"></path><path d="M45.694 3.945C45.694 2.776 45.653 0 50.136 0s4.441 2.776 4.441 3.945-1.989 1.872-4.441 1.872C47.682 5.817 45.694 5.115 45.694 3.945z" fill="#ff851b" data-fill-palette-color="accent"></path></g></svg></g></g></svg></g><defs></defs></svg><rect width="395.52" height="247.2" fill="none" stroke="none" visibility="hidden"></rect></g></svg></g></svg>